<mxfile host="app.diagrams.net" modified="2024-04-13T05:43:28.777Z" agent="Mozilla/5.0 (Windows NT 10.0; Win64; x64) AppleWebKit/537.36 (KHTML, like Gecko) Chrome/123.0.0.0 Safari/537.36" etag="1a9hRJ2wgyR2e6R-dRli" version="24.2.5" type="google" pages="3">
  <diagram name="Class_Diagram" id="12oN6znxCcm-HRqwzew_">
    <mxGraphModel grid="1" page="1" gridSize="10" guides="1" tooltips="1" connect="1" arrows="1" fold="1" pageScale="1" pageWidth="850" pageHeight="1100" math="0" shadow="0">
      <root>
        <mxCell id="0" />
        <mxCell id="1" parent="0" />
        <mxCell id="jlxrV1-ftLI8AvpM-f8m-1" value="&lt;p style=&quot;margin:0px;margin-top:4px;text-align:center;&quot;&gt;&lt;b&gt;Account&lt;/b&gt;&lt;/p&gt;&lt;hr size=&quot;1&quot;/&gt;&lt;p style=&quot;margin:0 0 0 4px;line-height:1.6;&quot;&gt; id:  Integer &lt;br/&gt; matKhau:  String &lt;br/&gt; role:  String &lt;br/&gt; tenDangNhap:  String &lt;br/&gt; trangThai:  boolean &lt;/p&gt;" style="verticalAlign=top;align=left;overflow=fill;fontSize=14;fontFamily=Helvetica;html=1;rounded=0;shadow=0;comic=0;labelBackgroundColor=none;strokeWidth=1;" vertex="1" parent="1">
          <mxGeometry x="107" y="140" width="176" height="159" as="geometry" />
        </mxCell>
        <mxCell id="jlxrV1-ftLI8AvpM-f8m-2" value="&lt;p style=&quot;margin:0px;margin-top:4px;text-align:center;&quot;&gt;&lt;b&gt;Cart&lt;/b&gt;&lt;/p&gt;&lt;hr size=&quot;1&quot;/&gt;&lt;p style=&quot;margin:0 0 0 4px;line-height:1.6;&quot;&gt; id:  Integer &lt;/p&gt;" style="verticalAlign=top;align=left;overflow=fill;fontSize=14;fontFamily=Helvetica;html=1;rounded=0;shadow=0;comic=0;labelBackgroundColor=none;strokeWidth=1;" vertex="1" parent="1">
          <mxGeometry x="270" y="824" width="101" height="68" as="geometry" />
        </mxCell>
        <mxCell id="jlxrV1-ftLI8AvpM-f8m-3" value="&lt;p style=&quot;margin:0px;margin-top:4px;text-align:center;&quot;&gt;&lt;b&gt;CartItem&lt;/b&gt;&lt;/p&gt;&lt;hr size=&quot;1&quot;/&gt;&lt;p style=&quot;margin:0 0 0 4px;line-height:1.6;&quot;&gt; id:  Integer &lt;br/&gt; soLuong:  int &lt;/p&gt;" style="verticalAlign=top;align=left;overflow=fill;fontSize=14;fontFamily=Helvetica;html=1;rounded=0;shadow=0;comic=0;labelBackgroundColor=none;strokeWidth=1;" vertex="1" parent="1">
          <mxGeometry x="104" y="972" width="120" height="94" as="geometry" />
        </mxCell>
        <mxCell id="jlxrV1-ftLI8AvpM-f8m-4" value="&lt;p style=&quot;margin:0px;margin-top:4px;text-align:center;&quot;&gt;&lt;b&gt;ChatLieu&lt;/b&gt;&lt;/p&gt;&lt;hr size=&quot;1&quot;/&gt;&lt;p style=&quot;margin:0 0 0 4px;line-height:1.6;&quot;&gt; id:  Integer &lt;br/&gt; ten:  String &lt;br/&gt; trangThai:  boolean &lt;/p&gt;" style="verticalAlign=top;align=left;overflow=fill;fontSize=14;fontFamily=Helvetica;html=1;rounded=0;shadow=0;comic=0;labelBackgroundColor=none;strokeWidth=1;" vertex="1" parent="1">
          <mxGeometry x="1079" y="432" width="161" height="120" as="geometry" />
        </mxCell>
        <mxCell id="jlxrV1-ftLI8AvpM-f8m-5" value="&lt;p style=&quot;margin:0px;margin-top:4px;text-align:center;&quot;&gt;&lt;b&gt;CoAo&lt;/b&gt;&lt;/p&gt;&lt;hr size=&quot;1&quot;/&gt;&lt;p style=&quot;margin:0 0 0 4px;line-height:1.6;&quot;&gt; id:  Integer &lt;br/&gt; ten:  String &lt;br/&gt; trangThai:  boolean &lt;/p&gt;" style="verticalAlign=top;align=left;overflow=fill;fontSize=14;fontFamily=Helvetica;html=1;rounded=0;shadow=0;comic=0;labelBackgroundColor=none;strokeWidth=1;" vertex="1" parent="1">
          <mxGeometry x="1525.5" y="432" width="161" height="120" as="geometry" />
        </mxCell>
        <mxCell id="jlxrV1-ftLI8AvpM-f8m-6" value="&lt;p style=&quot;margin:0px;margin-top:4px;text-align:center;&quot;&gt;&lt;b&gt;DiaChi&lt;/b&gt;&lt;/p&gt;&lt;hr size=&quot;1&quot;/&gt;&lt;p style=&quot;margin:0 0 0 4px;line-height:1.6;&quot;&gt; id:  Integer &lt;br/&gt; duong:  String &lt;br/&gt; huyen:  String &lt;br/&gt; macDinh:  boolean &lt;br/&gt; tinh:  String &lt;br/&gt; xa:  String &lt;/p&gt;" style="verticalAlign=top;align=left;overflow=fill;fontSize=14;fontFamily=Helvetica;html=1;rounded=0;shadow=0;comic=0;labelBackgroundColor=none;strokeWidth=1;" vertex="1" parent="1">
          <mxGeometry x="104" y="641" width="154" height="183" as="geometry" />
        </mxCell>
        <mxCell id="jlxrV1-ftLI8AvpM-f8m-7" value="&lt;p style=&quot;margin:0px;margin-top:4px;text-align:center;&quot;&gt;&lt;b&gt;DotGiamGia&lt;/b&gt;&lt;/p&gt;&lt;hr size=&quot;1&quot;/&gt;&lt;p style=&quot;margin:0 0 0 4px;line-height:1.6;&quot;&gt; id:  Integer &lt;br/&gt; giaTriPhanTram:  Integer &lt;br/&gt; maDotGiamGia:  String &lt;br/&gt; tenDotGiamGia:  String &lt;br/&gt; trangThai:  Integer &lt;/p&gt;" style="verticalAlign=top;align=left;overflow=fill;fontSize=14;fontFamily=Helvetica;html=1;rounded=0;shadow=0;comic=0;labelBackgroundColor=none;strokeWidth=1;" vertex="1" parent="1">
          <mxGeometry x="1590" y="928" width="196" height="159" as="geometry" />
        </mxCell>
        <mxCell id="jlxrV1-ftLI8AvpM-f8m-8" value="&lt;p style=&quot;margin:0px;margin-top:4px;text-align:center;&quot;&gt;&lt;b&gt;DotGiamGiaSanPham&lt;/b&gt;&lt;/p&gt;&lt;hr size=&quot;1&quot;/&gt;&lt;p style=&quot;margin:0 0 0 4px;line-height:1.6;&quot;&gt; id:  Integer &lt;br/&gt; thoiGianBatDau:  LocalDateTime &lt;br/&gt; thoiGianKetThuc:  LocalDateTime &lt;/p&gt;" style="verticalAlign=top;align=left;overflow=fill;fontSize=14;fontFamily=Helvetica;html=1;rounded=0;shadow=0;comic=0;labelBackgroundColor=none;strokeWidth=1;" vertex="1" parent="1">
          <mxGeometry x="1240" y="928" width="252" height="120" as="geometry" />
        </mxCell>
        <mxCell id="jlxrV1-ftLI8AvpM-f8m-9" value="&lt;p style=&quot;margin:0px;margin-top:4px;text-align:center;&quot;&gt;&lt;b&gt;FavouriteItem&lt;/b&gt;&lt;/p&gt;&lt;hr size=&quot;1&quot;/&gt;&lt;p style=&quot;margin:0 0 0 4px;line-height:1.6;&quot;&gt; id:  Integer &lt;br/&gt; soLuong:  int &lt;/p&gt;" style="verticalAlign=top;align=left;overflow=fill;fontSize=14;fontFamily=Helvetica;html=1;rounded=0;shadow=0;comic=0;labelBackgroundColor=none;strokeWidth=1;" vertex="1" parent="1">
          <mxGeometry x="254" y="972" width="142" height="94" as="geometry" />
        </mxCell>
        <mxCell id="jlxrV1-ftLI8AvpM-f8m-10" value="&lt;p style=&quot;margin:0px;margin-top:4px;text-align:center;&quot;&gt;&lt;b&gt;FavouriteList&lt;/b&gt;&lt;/p&gt;&lt;hr size=&quot;1&quot;/&gt;&lt;p style=&quot;margin:0 0 0 4px;line-height:1.6;&quot;&gt; id:  Integer &lt;/p&gt;" style="verticalAlign=top;align=left;overflow=fill;fontSize=14;fontFamily=Helvetica;html=1;rounded=0;shadow=0;comic=0;labelBackgroundColor=none;strokeWidth=1;" vertex="1" parent="1">
          <mxGeometry x="340" y="650" width="136" height="68" as="geometry" />
        </mxCell>
        <mxCell id="jlxrV1-ftLI8AvpM-f8m-11" value="&lt;p style=&quot;margin:0px;margin-top:4px;text-align:center;&quot;&gt;&lt;b&gt;HinhAnh&lt;/b&gt;&lt;/p&gt;&lt;hr size=&quot;1&quot;/&gt;&lt;p style=&quot;margin:0 0 0 4px;line-height:1.6;&quot;&gt; id:  Integer &lt;br/&gt; imageId:  String &lt;br/&gt; imageName:  String &lt;br/&gt; imageUrl:  String &lt;/p&gt;" style="verticalAlign=top;align=left;overflow=fill;fontSize=14;fontFamily=Helvetica;html=1;rounded=0;shadow=0;comic=0;labelBackgroundColor=none;strokeWidth=1;" vertex="1" parent="1">
          <mxGeometry x="1525.5" y="186" width="161" height="146" as="geometry" />
        </mxCell>
        <mxCell id="jlxrV1-ftLI8AvpM-f8m-12" value="&lt;p style=&quot;margin:0px;margin-top:4px;text-align:center;&quot;&gt;&lt;b&gt;HinhThucThanhToan&lt;/b&gt;&lt;/p&gt;&lt;hr size=&quot;1&quot;/&gt;&lt;p style=&quot;margin:0 0 0 4px;line-height:1.6;&quot;&gt; id:  Integer &lt;br/&gt; hinhThuc:  LoaiHinhThuc &lt;/p&gt;" style="verticalAlign=top;align=left;overflow=fill;fontSize=14;fontFamily=Helvetica;html=1;rounded=0;shadow=0;comic=0;labelBackgroundColor=none;strokeWidth=1;" vertex="1" parent="1">
          <mxGeometry x="861" y="777" width="197" height="94" as="geometry" />
        </mxCell>
        <mxCell id="jlxrV1-ftLI8AvpM-f8m-13" value="&lt;p style=&quot;margin:0px;margin-top:4px;text-align:center;&quot;&gt;&lt;b&gt;HoaDon&lt;/b&gt;&lt;/p&gt;&lt;hr size=&quot;1&quot;/&gt;&lt;p style=&quot;margin:0 0 0 4px;line-height:1.6;&quot;&gt; id:  Integer &lt;br/&gt; diaChiNguoiNhan:  String &lt;br/&gt; emailNguoiNhan:  String &lt;br/&gt; ghiChu:  String &lt;br/&gt; loaiHoaDon:  LoaiHoaDon &lt;br/&gt; ma:  String &lt;br/&gt; phiVanChuyen:  BigDecimal &lt;br/&gt; sdtNguoiNhan:  String &lt;br/&gt; tenNguoiNhan:  String &lt;br/&gt; tienGiam:  BigDecimal &lt;br/&gt; tongTien:  BigDecimal &lt;br/&gt; trangThai:  TrangThaiHoaDon &lt;/p&gt;" style="verticalAlign=top;align=left;overflow=fill;fontSize=14;fontFamily=Helvetica;html=1;rounded=0;shadow=0;comic=0;labelBackgroundColor=none;strokeWidth=1;" vertex="1" parent="1">
          <mxGeometry x="570" y="437" width="224" height="327" as="geometry" />
        </mxCell>
        <mxCell id="jlxrV1-ftLI8AvpM-f8m-14" value="&lt;p style=&quot;margin:0px;margin-top:4px;text-align:center;&quot;&gt;&lt;b&gt;HoaDonChiTiet&lt;/b&gt;&lt;/p&gt;&lt;hr size=&quot;1&quot;/&gt;&lt;p style=&quot;margin:0 0 0 4px;line-height:1.6;&quot;&gt; id:  Integer &lt;br/&gt; giaBan:  BigDecimal &lt;br/&gt; giaNhap:  BigDecimal &lt;br/&gt; soLuong:  int &lt;/p&gt;" style="verticalAlign=top;align=left;overflow=fill;fontSize=14;fontFamily=Helvetica;html=1;rounded=0;shadow=0;comic=0;labelBackgroundColor=none;strokeWidth=1;" vertex="1" parent="1">
          <mxGeometry x="705" y="928" width="170" height="146" as="geometry" />
        </mxCell>
        <mxCell id="jlxrV1-ftLI8AvpM-f8m-15" value="&lt;p style=&quot;margin:0px;margin-top:4px;text-align:center;&quot;&gt;&lt;b&gt;KhachHang&lt;/b&gt;&lt;/p&gt;&lt;hr size=&quot;1&quot;/&gt;&lt;p style=&quot;margin:0 0 0 4px;line-height:1.6;&quot;&gt; id:  Integer &lt;br/&gt; email:  String &lt;br/&gt; gioiTinh:  boolean &lt;br/&gt; hoTen:  String &lt;br/&gt; ngaySinh:  LocalDate &lt;br/&gt; sdt:  String &lt;br/&gt; trangThai:  int &lt;/p&gt;" style="verticalAlign=top;align=left;overflow=fill;fontSize=14;fontFamily=Helvetica;html=1;rounded=0;shadow=0;comic=0;labelBackgroundColor=none;strokeWidth=1;" vertex="1" parent="1">
          <mxGeometry x="107" y="392" width="170" height="207" as="geometry" />
        </mxCell>
        <mxCell id="jlxrV1-ftLI8AvpM-f8m-16" value="&lt;p style=&quot;margin:0px;margin-top:4px;text-align:center;&quot;&gt;&lt;b&gt;KhachHangImage&lt;/b&gt;&lt;/p&gt;&lt;hr size=&quot;1&quot;/&gt;&lt;p style=&quot;margin:0 0 0 4px;line-height:1.6;&quot;&gt; id:  Integer &lt;br/&gt; imageId:  String &lt;br/&gt; imageName:  String &lt;br/&gt; imageUrl:  String &lt;/p&gt;" style="verticalAlign=top;align=left;overflow=fill;fontSize=14;fontFamily=Helvetica;html=1;rounded=0;shadow=0;comic=0;labelBackgroundColor=none;strokeWidth=1;" vertex="1" parent="1">
          <mxGeometry x="107" y="-72.5" width="170" height="146" as="geometry" />
        </mxCell>
        <mxCell id="jlxrV1-ftLI8AvpM-f8m-17" value="&lt;p style=&quot;margin:0px;margin-top:4px;text-align:center;&quot;&gt;&lt;b&gt;KichCo&lt;/b&gt;&lt;/p&gt;&lt;hr size=&quot;1&quot;/&gt;&lt;p style=&quot;margin:0 0 0 4px;line-height:1.6;&quot;&gt; id:  Integer &lt;br/&gt; ten:  String &lt;br/&gt; trangThai:  boolean &lt;/p&gt;" style="verticalAlign=top;align=left;overflow=fill;fontSize=14;fontFamily=Helvetica;html=1;rounded=0;shadow=0;comic=0;labelBackgroundColor=none;strokeWidth=1;" vertex="1" parent="1">
          <mxGeometry x="1746.5" y="586.5" width="161" height="120" as="geometry" />
        </mxCell>
        <mxCell id="jlxrV1-ftLI8AvpM-f8m-18" value="&lt;p style=&quot;margin:0px;margin-top:4px;text-align:center;&quot;&gt;&lt;b&gt;KieuDang&lt;/b&gt;&lt;/p&gt;&lt;hr size=&quot;1&quot;/&gt;&lt;p style=&quot;margin:0 0 0 4px;line-height:1.6;&quot;&gt; id:  Integer &lt;br/&gt; ten:  String &lt;br/&gt; trangThai:  boolean &lt;/p&gt;" style="verticalAlign=top;align=left;overflow=fill;fontSize=14;fontFamily=Helvetica;html=1;rounded=0;shadow=0;comic=0;labelBackgroundColor=none;strokeWidth=1;" vertex="1" parent="1">
          <mxGeometry x="1743" y="306" width="161" height="120" as="geometry" />
        </mxCell>
        <mxCell id="jlxrV1-ftLI8AvpM-f8m-19" value="&lt;p style=&quot;margin:0px;margin-top:4px;text-align:center;&quot;&gt;&lt;b&gt;KieuThietKe&lt;/b&gt;&lt;/p&gt;&lt;hr size=&quot;1&quot;/&gt;&lt;p style=&quot;margin:0 0 0 4px;line-height:1.6;&quot;&gt; id:  Integer &lt;br/&gt; ten:  String &lt;br/&gt; trangThai:  boolean &lt;/p&gt;" style="verticalAlign=top;align=left;overflow=fill;fontSize=14;fontFamily=Helvetica;html=1;rounded=0;shadow=0;comic=0;labelBackgroundColor=none;strokeWidth=1;" vertex="1" parent="1">
          <mxGeometry x="1304.5" y="432" width="161" height="120" as="geometry" />
        </mxCell>
        <mxCell id="jlxrV1-ftLI8AvpM-f8m-20" value="&lt;p style=&quot;margin:0px;margin-top:4px;text-align:center;&quot;&gt;&lt;b&gt;LichSuHoaDon&lt;/b&gt;&lt;/p&gt;&lt;hr size=&quot;1&quot;/&gt;&lt;p style=&quot;margin:0 0 0 4px;line-height:1.6;&quot;&gt; id:  Integer &lt;br/&gt; moTa:  String &lt;br/&gt; tieuDe:  String &lt;br/&gt; trangThai:  TrangThaiHoaDon &lt;/p&gt;" style="verticalAlign=top;align=left;overflow=fill;fontSize=14;fontFamily=Helvetica;html=1;rounded=0;shadow=0;comic=0;labelBackgroundColor=none;strokeWidth=1;" vertex="1" parent="1">
          <mxGeometry x="622" y="240" width="224" height="146" as="geometry" />
        </mxCell>
        <mxCell id="jlxrV1-ftLI8AvpM-f8m-21" value="&lt;p style=&quot;margin:0px;margin-top:4px;text-align:center;&quot;&gt;&lt;b&gt;MauSac&lt;/b&gt;&lt;/p&gt;&lt;hr size=&quot;1&quot;/&gt;&lt;p style=&quot;margin:0 0 0 4px;line-height:1.6;&quot;&gt; id:  Integer &lt;br/&gt; ma:  String &lt;br/&gt; ten:  String &lt;br/&gt; trangThai:  boolean &lt;/p&gt;" style="verticalAlign=top;align=left;overflow=fill;fontSize=14;fontFamily=Helvetica;html=1;rounded=0;shadow=0;comic=0;labelBackgroundColor=none;strokeWidth=1;" vertex="1" parent="1">
          <mxGeometry x="919" y="236" width="161" height="146" as="geometry" />
        </mxCell>
        <mxCell id="jlxrV1-ftLI8AvpM-f8m-22" value="&lt;p style=&quot;margin:0px;margin-top:4px;text-align:center;&quot;&gt;&lt;b&gt;MauSacImage&lt;/b&gt;&lt;/p&gt;&lt;hr size=&quot;1&quot;/&gt;&lt;p style=&quot;margin:0 0 0 4px;line-height:1.6;&quot;&gt; id:  Integer &lt;br/&gt; imageId:  String &lt;br/&gt; imageName:  String &lt;br/&gt; imageUrl:  String &lt;/p&gt;" style="verticalAlign=top;align=left;overflow=fill;fontSize=14;fontFamily=Helvetica;html=1;rounded=0;shadow=0;comic=0;labelBackgroundColor=none;strokeWidth=1;" vertex="1" parent="1">
          <mxGeometry x="920" y="40" width="161" height="146" as="geometry" />
        </mxCell>
        <mxCell id="jlxrV1-ftLI8AvpM-f8m-23" value="&lt;p style=&quot;margin:0px;margin-top:4px;text-align:center;&quot;&gt;&lt;b&gt;NhanVien&lt;/b&gt;&lt;/p&gt;&lt;hr size=&quot;1&quot;/&gt;&lt;p style=&quot;margin:0 0 0 4px;line-height:1.6;&quot;&gt; id:  Integer &lt;br/&gt; cccd:  String &lt;br/&gt; diaChi:  String &lt;br/&gt; email:  String &lt;br/&gt; gioiTinh:  boolean &lt;br/&gt; hoTen:  String &lt;br/&gt; ngaySinh:  LocalDate &lt;br/&gt; sdt:  String &lt;/p&gt;" style="verticalAlign=top;align=left;overflow=fill;fontSize=14;fontFamily=Helvetica;html=1;rounded=0;shadow=0;comic=0;labelBackgroundColor=none;strokeWidth=1;" vertex="1" parent="1">
          <mxGeometry x="339" y="238" width="170" height="231" as="geometry" />
        </mxCell>
        <mxCell id="jlxrV1-ftLI8AvpM-f8m-24" value="&lt;p style=&quot;margin:0px;margin-top:4px;text-align:center;&quot;&gt;&lt;b&gt;PhieuGiamGia&lt;/b&gt;&lt;/p&gt;&lt;hr size=&quot;1&quot;/&gt;&lt;p style=&quot;margin:0 0 0 4px;line-height:1.6;&quot;&gt; id:  Integer &lt;br/&gt; dieuKienGiam:  BigDecimal &lt;br/&gt; giaTri:  BigDecimal &lt;br/&gt; giaTriMax:  BigDecimal &lt;br/&gt; kieu:  Integer &lt;br/&gt; loai:  Integer &lt;br/&gt; maPhieuGiamGia:  String &lt;br/&gt; soLuong:  int &lt;br/&gt; tenPhieuGiamGia:  String &lt;br/&gt; thoiGianBatDau:  LocalDateTime &lt;br/&gt; thoiGianKetThuc:  LocalDateTime &lt;br/&gt; trangThai:  String &lt;/p&gt;" style="verticalAlign=top;align=left;overflow=fill;fontSize=14;fontFamily=Helvetica;html=1;rounded=0;shadow=0;comic=0;labelBackgroundColor=none;strokeWidth=1;" vertex="1" parent="1">
          <mxGeometry x="350" y="-137" width="252" height="327" as="geometry" />
        </mxCell>
        <mxCell id="jlxrV1-ftLI8AvpM-f8m-25" value="&lt;p style=&quot;margin:0px;margin-top:4px;text-align:center;&quot;&gt;&lt;b&gt;PhieuGiamGiaKhachHang&lt;/b&gt;&lt;/p&gt;&lt;hr size=&quot;1&quot;/&gt;&lt;p style=&quot;margin:0 0 0 4px;line-height:1.6;&quot;&gt; id:  Integer &lt;br/&gt; moTa:  String &lt;/p&gt;" style="verticalAlign=top;align=left;overflow=fill;fontSize=14;fontFamily=Helvetica;html=1;rounded=0;shadow=0;comic=0;labelBackgroundColor=none;strokeWidth=1;" vertex="1" parent="1">
          <mxGeometry x="414" y="824" width="231" height="94" as="geometry" />
        </mxCell>
        <mxCell id="jlxrV1-ftLI8AvpM-f8m-26" value="&lt;p style=&quot;margin:0px;margin-top:4px;text-align:center;&quot;&gt;&lt;b&gt;SanPham&lt;/b&gt;&lt;/p&gt;&lt;hr size=&quot;1&quot;/&gt;&lt;p style=&quot;margin:0 0 0 4px;line-height:1.6;&quot;&gt; id:  Integer &lt;br/&gt; ma:  String &lt;br/&gt; moTa:  String &lt;br/&gt; ten:  String &lt;br/&gt; trangThai:  boolean &lt;/p&gt;" style="verticalAlign=top;align=left;overflow=fill;fontSize=14;fontFamily=Helvetica;html=1;rounded=0;shadow=0;comic=0;labelBackgroundColor=none;strokeWidth=1;" vertex="1" parent="1">
          <mxGeometry x="1201" y="680" width="161" height="159" as="geometry" />
        </mxCell>
        <mxCell id="jlxrV1-ftLI8AvpM-f8m-27" value="&lt;p style=&quot;margin:0px;margin-top:4px;text-align:center;&quot;&gt;&lt;b&gt;SanPhamChiTiet&lt;/b&gt;&lt;/p&gt;&lt;hr size=&quot;1&quot;/&gt;&lt;p style=&quot;margin:0 0 0 4px;line-height:1.6;&quot;&gt; id:  Integer &lt;br/&gt; giaBan:  BigDecimal &lt;br/&gt; giaNhap:  BigDecimal &lt;br/&gt; soLuongTon:  int &lt;br/&gt; trangThai:  boolean &lt;/p&gt;" style="verticalAlign=top;align=left;overflow=fill;fontSize=14;fontFamily=Helvetica;html=1;rounded=0;shadow=0;comic=0;labelBackgroundColor=none;strokeWidth=1;" vertex="1" parent="1">
          <mxGeometry x="1479.5" y="608" width="170" height="159" as="geometry" />
        </mxCell>
        <mxCell id="jlxrV1-ftLI8AvpM-f8m-28" value="&lt;p style=&quot;margin:0px;margin-top:4px;text-align:center;&quot;&gt;&lt;b&gt;TayAo&lt;/b&gt;&lt;/p&gt;&lt;hr size=&quot;1&quot;/&gt;&lt;p style=&quot;margin:0 0 0 4px;line-height:1.6;&quot;&gt; id:  Integer &lt;br/&gt; ten:  String &lt;br/&gt; trangThai:  boolean &lt;/p&gt;" style="verticalAlign=top;align=left;overflow=fill;fontSize=14;fontFamily=Helvetica;html=1;rounded=0;shadow=0;comic=0;labelBackgroundColor=none;strokeWidth=1;" vertex="1" parent="1">
          <mxGeometry x="1160" y="190" width="161" height="120" as="geometry" />
        </mxCell>
        <mxCell id="jlxrV1-ftLI8AvpM-f8m-29" value="&lt;p style=&quot;margin:0px;margin-top:4px;text-align:center;&quot;&gt;&lt;b&gt;ThanhToan&lt;/b&gt;&lt;/p&gt;&lt;hr size=&quot;1&quot;/&gt;&lt;p style=&quot;margin:0 0 0 4px;line-height:1.6;&quot;&gt; id:  Integer &lt;br/&gt; maGiaoDich:  String &lt;br/&gt; moTa:  String &lt;br/&gt; soTien:  BigDecimal &lt;br/&gt; trangThai:  boolean &lt;/p&gt;" style="verticalAlign=top;align=left;overflow=fill;fontSize=14;fontFamily=Helvetica;html=1;rounded=0;shadow=0;comic=0;labelBackgroundColor=none;strokeWidth=1;" vertex="1" parent="1">
          <mxGeometry x="854" y="435" width="164" height="159" as="geometry" />
        </mxCell>
        <mxCell id="jlxrV1-ftLI8AvpM-f8m-30" value="" style="html=1;rounded=1;edgeStyle=orthogonalEdgeStyle;dashed=0;startArrow=none;endArrow=classic;endSize=12;strokeColor=#595959;exitX=0.500;exitY=0.000;exitDx=0;exitDy=0;entryX=0.500;entryY=1.000;entryDx=0;entryDy=0;" edge="1" parent="1" source="jlxrV1-ftLI8AvpM-f8m-2" target="jlxrV1-ftLI8AvpM-f8m-15">
          <mxGeometry width="50" height="50" relative="1" as="geometry">
            <Array as="points">
              <mxPoint x="303" y="625" />
              <mxPoint x="192" y="625" />
            </Array>
          </mxGeometry>
        </mxCell>
        <mxCell id="jlxrV1-ftLI8AvpM-f8m-31" value="" style="html=1;rounded=1;edgeStyle=orthogonalEdgeStyle;dashed=0;startArrow=none;endArrow=classic;endSize=12;strokeColor=#595959;exitX=0.500;exitY=0.001;exitDx=0;exitDy=0;entryX=0.000;entryY=0.500;entryDx=0;entryDy=0;" edge="1" parent="1" source="jlxrV1-ftLI8AvpM-f8m-3" target="jlxrV1-ftLI8AvpM-f8m-2">
          <mxGeometry width="50" height="50" relative="1" as="geometry">
            <Array as="points">
              <mxPoint x="164" y="858" />
            </Array>
          </mxGeometry>
        </mxCell>
        <mxCell id="jlxrV1-ftLI8AvpM-f8m-32" value="" style="html=1;rounded=1;edgeStyle=orthogonalEdgeStyle;dashed=0;startArrow=none;endArrow=classic;endSize=12;strokeColor=#595959;exitX=0.500;exitY=1.000;exitDx=0;exitDy=0;" edge="1" parent="1" source="jlxrV1-ftLI8AvpM-f8m-3" target="jlxrV1-ftLI8AvpM-f8m-27">
          <mxGeometry width="50" height="50" relative="1" as="geometry">
            <Array as="points">
              <mxPoint x="160" y="1066" />
              <mxPoint x="160" y="1104" />
              <mxPoint x="1086" y="1104" />
              <mxPoint x="1086" y="640" />
              <mxPoint x="1419" y="640" />
              <mxPoint x="1419" y="688" />
            </Array>
          </mxGeometry>
        </mxCell>
        <mxCell id="jlxrV1-ftLI8AvpM-f8m-33" value="" style="html=1;rounded=1;edgeStyle=orthogonalEdgeStyle;dashed=0;startArrow=none;endArrow=classic;endSize=12;strokeColor=#595959;exitX=1.000;exitY=0.500;exitDx=0;exitDy=0;entryX=0;entryY=0.5;entryDx=0;entryDy=0;" edge="1" parent="1" source="jlxrV1-ftLI8AvpM-f8m-8" target="jlxrV1-ftLI8AvpM-f8m-7">
          <mxGeometry width="50" height="50" relative="1" as="geometry">
            <Array as="points">
              <mxPoint x="1492" y="1008" />
            </Array>
          </mxGeometry>
        </mxCell>
        <mxCell id="jlxrV1-ftLI8AvpM-f8m-34" value="" style="html=1;rounded=1;edgeStyle=orthogonalEdgeStyle;dashed=0;startArrow=none;endArrow=classic;endSize=12;strokeColor=#595959;exitX=0.754;exitY=0;exitDx=0;exitDy=0;entryX=0.000;entryY=0.500;entryDx=0;entryDy=0;exitPerimeter=0;" edge="1" parent="1" source="jlxrV1-ftLI8AvpM-f8m-8" target="jlxrV1-ftLI8AvpM-f8m-27">
          <mxGeometry width="50" height="50" relative="1" as="geometry">
            <Array as="points">
              <mxPoint x="1420" y="928" />
              <mxPoint x="1420" y="688" />
            </Array>
          </mxGeometry>
        </mxCell>
        <mxCell id="jlxrV1-ftLI8AvpM-f8m-35" value="" style="html=1;rounded=1;edgeStyle=orthogonalEdgeStyle;dashed=0;startArrow=none;endArrow=classic;endSize=12;strokeColor=#595959;exitX=0.947;exitY=0.000;exitDx=0;exitDy=0;entryX=0.356;entryY=1.001;entryDx=0;entryDy=0;" edge="1" parent="1" source="jlxrV1-ftLI8AvpM-f8m-9" target="jlxrV1-ftLI8AvpM-f8m-10">
          <mxGeometry width="50" height="50" relative="1" as="geometry">
            <Array as="points" />
          </mxGeometry>
        </mxCell>
        <mxCell id="jlxrV1-ftLI8AvpM-f8m-36" value="" style="html=1;rounded=1;edgeStyle=orthogonalEdgeStyle;dashed=0;startArrow=none;endArrow=classic;endSize=12;strokeColor=#595959;exitX=0.500;exitY=1.001;exitDx=0;exitDy=0;entryX=0.000;entryY=0.500;entryDx=0;entryDy=0;" edge="1" parent="1" source="jlxrV1-ftLI8AvpM-f8m-9" target="jlxrV1-ftLI8AvpM-f8m-27">
          <mxGeometry width="50" height="50" relative="1" as="geometry">
            <Array as="points">
              <mxPoint x="325" y="1104" />
              <mxPoint x="1086" y="1104" />
              <mxPoint x="1086" y="640" />
              <mxPoint x="1419" y="640" />
              <mxPoint x="1419" y="688" />
            </Array>
          </mxGeometry>
        </mxCell>
        <mxCell id="jlxrV1-ftLI8AvpM-f8m-37" value="" style="html=1;rounded=1;edgeStyle=orthogonalEdgeStyle;dashed=0;startArrow=none;endArrow=classic;endSize=12;strokeColor=#595959;exitX=0.500;exitY=0.001;exitDx=0;exitDy=0;entryX=0.500;entryY=1.000;entryDx=0;entryDy=0;" edge="1" parent="1" source="jlxrV1-ftLI8AvpM-f8m-10" target="jlxrV1-ftLI8AvpM-f8m-15">
          <mxGeometry width="50" height="50" relative="1" as="geometry">
            <Array as="points">
              <mxPoint x="408" y="625" />
              <mxPoint x="192" y="625" />
            </Array>
          </mxGeometry>
        </mxCell>
        <mxCell id="jlxrV1-ftLI8AvpM-f8m-38" value="" style="html=1;rounded=1;edgeStyle=orthogonalEdgeStyle;dashed=0;startArrow=classic;startSize=12;endArrow=classic;endSize=12;strokeColor=#595959;exitX=0.000;exitY=0.500;exitDx=0;exitDy=0;entryX=0.000;entryY=0.500;entryDx=0;entryDy=0;" edge="1" parent="1" source="jlxrV1-ftLI8AvpM-f8m-12" target="jlxrV1-ftLI8AvpM-f8m-29">
          <mxGeometry width="50" height="50" relative="1" as="geometry">
            <Array as="points">
              <mxPoint x="824" y="820" />
              <mxPoint x="824" y="515" />
            </Array>
          </mxGeometry>
        </mxCell>
        <mxCell id="jlxrV1-ftLI8AvpM-f8m-39" value="" style="html=1;rounded=1;edgeStyle=orthogonalEdgeStyle;dashed=0;startArrow=none;endArrow=classic;endSize=12;strokeColor=#595959;exitX=0.500;exitY=1.000;exitDx=0;exitDy=0;entryX=0.500;entryY=1.000;entryDx=0;entryDy=0;" edge="1" parent="1" source="jlxrV1-ftLI8AvpM-f8m-13" target="jlxrV1-ftLI8AvpM-f8m-15">
          <mxGeometry width="50" height="50" relative="1" as="geometry">
            <Array as="points">
              <mxPoint x="682" y="795" />
              <mxPoint x="514" y="795" />
              <mxPoint x="514" y="625" />
              <mxPoint x="192" y="625" />
            </Array>
          </mxGeometry>
        </mxCell>
        <mxCell id="jlxrV1-ftLI8AvpM-f8m-40" value="" style="html=1;rounded=1;edgeStyle=orthogonalEdgeStyle;dashed=0;startArrow=classic;startSize=12;endArrow=classic;endSize=12;strokeColor=#595959;exitX=0.732;exitY=0.000;exitDx=0;exitDy=0;entryX=0.500;entryY=1.000;entryDx=0;entryDy=0;" edge="1" parent="1" source="jlxrV1-ftLI8AvpM-f8m-13" target="jlxrV1-ftLI8AvpM-f8m-20">
          <mxGeometry width="50" height="50" relative="1" as="geometry">
            <Array as="points" />
          </mxGeometry>
        </mxCell>
        <mxCell id="jlxrV1-ftLI8AvpM-f8m-41" value="" style="html=1;rounded=1;edgeStyle=orthogonalEdgeStyle;dashed=0;startArrow=none;endArrow=classic;endSize=12;strokeColor=#595959;exitX=0.000;exitY=0.023;exitDx=0;exitDy=0;entryX=1.000;entryY=0.893;entryDx=0;entryDy=0;" edge="1" parent="1" source="jlxrV1-ftLI8AvpM-f8m-13" target="jlxrV1-ftLI8AvpM-f8m-23">
          <mxGeometry width="50" height="50" relative="1" as="geometry">
            <Array as="points" />
          </mxGeometry>
        </mxCell>
        <mxCell id="jlxrV1-ftLI8AvpM-f8m-42" value="" style="html=1;rounded=1;edgeStyle=orthogonalEdgeStyle;dashed=0;startArrow=none;endArrow=classic;endSize=12;strokeColor=#595959;exitX=0.120;exitY=1.000;exitDx=0;exitDy=0;" edge="1" parent="1" source="jlxrV1-ftLI8AvpM-f8m-13">
          <mxGeometry width="50" height="50" relative="1" as="geometry">
            <Array as="points">
              <mxPoint x="597" y="780" />
              <mxPoint x="552" y="780" />
            </Array>
            <mxPoint x="552" y="190" as="targetPoint" />
          </mxGeometry>
        </mxCell>
        <mxCell id="jlxrV1-ftLI8AvpM-f8m-43" value="" style="html=1;rounded=1;edgeStyle=orthogonalEdgeStyle;dashed=0;startArrow=classic;startSize=12;endArrow=classic;endSize=12;strokeColor=#595959;exitX=1.000;exitY=0.500;exitDx=0;exitDy=0;entryX=0.000;entryY=0.500;entryDx=0;entryDy=0;" edge="1" parent="1" source="jlxrV1-ftLI8AvpM-f8m-13" target="jlxrV1-ftLI8AvpM-f8m-29">
          <mxGeometry width="50" height="50" relative="1" as="geometry">
            <Array as="points">
              <mxPoint x="824" y="600" />
              <mxPoint x="824" y="515" />
            </Array>
          </mxGeometry>
        </mxCell>
        <mxCell id="jlxrV1-ftLI8AvpM-f8m-44" value="" style="html=1;rounded=1;edgeStyle=orthogonalEdgeStyle;dashed=0;startArrow=classic;startSize=12;endArrow=classic;endSize=12;strokeColor=#595959;exitX=0.475;exitY=0.000;exitDx=0;exitDy=0;entryX=0.967;entryY=1.000;entryDx=0;entryDy=0;" edge="1" parent="1" source="jlxrV1-ftLI8AvpM-f8m-14" target="jlxrV1-ftLI8AvpM-f8m-13">
          <mxGeometry width="50" height="50" relative="1" as="geometry">
            <Array as="points" />
          </mxGeometry>
        </mxCell>
        <mxCell id="jlxrV1-ftLI8AvpM-f8m-45" value="" style="html=1;rounded=1;edgeStyle=orthogonalEdgeStyle;dashed=0;startArrow=none;endArrow=classic;endSize=12;strokeColor=#595959;exitX=0.500;exitY=1.000;exitDx=0;exitDy=0;entryX=0.000;entryY=0.500;entryDx=0;entryDy=0;" edge="1" parent="1" source="jlxrV1-ftLI8AvpM-f8m-14" target="jlxrV1-ftLI8AvpM-f8m-27">
          <mxGeometry width="50" height="50" relative="1" as="geometry">
            <Array as="points">
              <mxPoint x="790" y="1104" />
              <mxPoint x="1086" y="1104" />
              <mxPoint x="1086" y="640" />
              <mxPoint x="1419" y="640" />
              <mxPoint x="1419" y="688" />
            </Array>
          </mxGeometry>
        </mxCell>
        <mxCell id="jlxrV1-ftLI8AvpM-f8m-46" value="" style="html=1;rounded=1;edgeStyle=orthogonalEdgeStyle;dashed=0;startArrow=none;endArrow=classic;endSize=12;strokeColor=#595959;exitX=0.500;exitY=0.000;exitDx=0;exitDy=0;" edge="1" parent="1" source="jlxrV1-ftLI8AvpM-f8m-15">
          <mxGeometry width="50" height="50" relative="1" as="geometry">
            <Array as="points">
              <mxPoint x="192" y="373" />
              <mxPoint x="182" y="373" />
            </Array>
            <mxPoint x="182" y="300" as="targetPoint" />
          </mxGeometry>
        </mxCell>
        <mxCell id="jlxrV1-ftLI8AvpM-f8m-47" value="" style="html=1;rounded=1;edgeStyle=orthogonalEdgeStyle;dashed=0;startArrow=classic;startSize=12;endArrow=classic;endSize=12;strokeColor=#595959;exitX=0.000;exitY=0.500;exitDx=0;exitDy=0;" edge="1" parent="1" source="jlxrV1-ftLI8AvpM-f8m-15" target="jlxrV1-ftLI8AvpM-f8m-6">
          <mxGeometry width="50" height="50" relative="1" as="geometry">
            <Array as="points">
              <mxPoint x="70" y="496" />
              <mxPoint x="70" y="732" />
            </Array>
          </mxGeometry>
        </mxCell>
        <mxCell id="jlxrV1-ftLI8AvpM-f8m-48" value="" style="html=1;rounded=1;edgeStyle=orthogonalEdgeStyle;dashed=0;startArrow=none;endArrow=classic;endSize=12;strokeColor=#595959;exitX=1.000;exitY=0.500;exitDx=0;exitDy=0;entryX=1.000;entryY=0.500;entryDx=0;entryDy=0;" edge="1" parent="1" source="jlxrV1-ftLI8AvpM-f8m-15" target="jlxrV1-ftLI8AvpM-f8m-16">
          <mxGeometry width="50" height="50" relative="1" as="geometry">
            <Array as="points">
              <mxPoint x="306" y="496" />
              <mxPoint x="306" />
              <mxPoint x="277" />
            </Array>
          </mxGeometry>
        </mxCell>
        <mxCell id="jlxrV1-ftLI8AvpM-f8m-49" value="" style="html=1;rounded=1;edgeStyle=orthogonalEdgeStyle;dashed=0;startArrow=none;endArrow=classic;endSize=12;strokeColor=#595959;exitX=0.509;exitY=0.000;exitDx=0;exitDy=0;entryX=0.500;entryY=1.000;entryDx=0;entryDy=0;" edge="1" parent="1" source="jlxrV1-ftLI8AvpM-f8m-21" target="jlxrV1-ftLI8AvpM-f8m-22">
          <mxGeometry width="50" height="50" relative="1" as="geometry">
            <Array as="points" />
          </mxGeometry>
        </mxCell>
        <mxCell id="jlxrV1-ftLI8AvpM-f8m-50" value="" style="html=1;rounded=1;edgeStyle=orthogonalEdgeStyle;dashed=0;startArrow=none;endArrow=classic;endSize=12;strokeColor=#595959;exitX=0.000;exitY=0.435;exitDx=0;exitDy=0;entryX=0.428;entryY=1.006;entryDx=0;entryDy=0;entryPerimeter=0;" edge="1" parent="1" source="jlxrV1-ftLI8AvpM-f8m-23" target="jlxrV1-ftLI8AvpM-f8m-1">
          <mxGeometry width="50" height="50" relative="1" as="geometry">
            <Array as="points">
              <mxPoint x="194" y="338" />
              <mxPoint x="194" y="373" />
              <mxPoint x="182" y="373" />
            </Array>
          </mxGeometry>
        </mxCell>
        <mxCell id="jlxrV1-ftLI8AvpM-f8m-51" value="" style="html=1;rounded=1;edgeStyle=orthogonalEdgeStyle;dashed=0;startArrow=none;endArrow=classic;endSize=12;strokeColor=#595959;exitX=0.000;exitY=0.500;exitDx=0;exitDy=0;entryX=1.000;entryY=0.500;entryDx=0;entryDy=0;" edge="1" parent="1" source="jlxrV1-ftLI8AvpM-f8m-23" target="jlxrV1-ftLI8AvpM-f8m-16">
          <mxGeometry width="50" height="50" relative="1" as="geometry">
            <Array as="points">
              <mxPoint x="306" y="354" />
              <mxPoint x="306" />
              <mxPoint x="277" />
            </Array>
          </mxGeometry>
        </mxCell>
        <mxCell id="jlxrV1-ftLI8AvpM-f8m-52" value="" style="html=1;rounded=1;edgeStyle=orthogonalEdgeStyle;dashed=0;startArrow=none;endArrow=classic;endSize=12;strokeColor=#595959;exitX=0.500;exitY=0.000;exitDx=0;exitDy=0;entryX=0.500;entryY=1.000;entryDx=0;entryDy=0;" edge="1" parent="1" source="jlxrV1-ftLI8AvpM-f8m-25" target="jlxrV1-ftLI8AvpM-f8m-15">
          <mxGeometry width="50" height="50" relative="1" as="geometry">
            <Array as="points">
              <mxPoint x="529" y="795" />
              <mxPoint x="514" y="795" />
              <mxPoint x="514" y="625" />
              <mxPoint x="192" y="625" />
            </Array>
          </mxGeometry>
        </mxCell>
        <mxCell id="jlxrV1-ftLI8AvpM-f8m-53" value="" style="html=1;rounded=1;edgeStyle=orthogonalEdgeStyle;dashed=0;startArrow=none;endArrow=classic;endSize=12;strokeColor=#595959;exitX=0.790;exitY=0.000;exitDx=0;exitDy=0;" edge="1" parent="1" source="jlxrV1-ftLI8AvpM-f8m-25">
          <mxGeometry width="50" height="50" relative="1" as="geometry">
            <Array as="points">
              <mxPoint x="597" y="780" />
              <mxPoint x="552" y="780" />
            </Array>
            <mxPoint x="552" y="190" as="targetPoint" />
          </mxGeometry>
        </mxCell>
        <mxCell id="jlxrV1-ftLI8AvpM-f8m-54" value="" style="html=1;rounded=1;edgeStyle=orthogonalEdgeStyle;dashed=0;startArrow=classic;startSize=12;endArrow=classic;endSize=12;strokeColor=#595959;exitX=1.000;exitY=0.013;exitDx=0;exitDy=0;entryX=0.000;entryY=0.500;entryDx=0;entryDy=0;" edge="1" parent="1" target="jlxrV1-ftLI8AvpM-f8m-27">
          <mxGeometry width="50" height="50" relative="1" as="geometry">
            <Array as="points">
              <mxPoint x="1420" y="728" />
              <mxPoint x="1420" y="688" />
            </Array>
            <mxPoint x="1365.5000000000005" y="728.067" as="sourcePoint" />
          </mxGeometry>
        </mxCell>
        <mxCell id="jlxrV1-ftLI8AvpM-f8m-55" value="" style="html=1;rounded=1;edgeStyle=orthogonalEdgeStyle;dashed=0;startArrow=none;endArrow=classic;endSize=12;strokeColor=#595959;entryX=0.500;entryY=1.000;entryDx=0;entryDy=0;" edge="1" parent="1" target="jlxrV1-ftLI8AvpM-f8m-4">
          <mxGeometry width="50" height="50" relative="1" as="geometry">
            <Array as="points">
              <mxPoint x="1400" y="620" />
              <mxPoint x="1400" y="600" />
              <mxPoint x="1160" y="600" />
            </Array>
            <mxPoint x="1480" y="620" as="sourcePoint" />
          </mxGeometry>
        </mxCell>
        <mxCell id="jlxrV1-ftLI8AvpM-f8m-56" value="" style="html=1;rounded=1;edgeStyle=orthogonalEdgeStyle;dashed=0;startArrow=none;endArrow=classic;endSize=12;strokeColor=#595959;exitX=0.745;exitY=0.000;exitDx=0;exitDy=0;entryX=0.500;entryY=1.000;entryDx=0;entryDy=0;" edge="1" parent="1" source="jlxrV1-ftLI8AvpM-f8m-27" target="jlxrV1-ftLI8AvpM-f8m-5">
          <mxGeometry width="50" height="50" relative="1" as="geometry">
            <Array as="points" />
          </mxGeometry>
        </mxCell>
        <mxCell id="jlxrV1-ftLI8AvpM-f8m-57" value="" style="html=1;rounded=1;edgeStyle=orthogonalEdgeStyle;dashed=0;startArrow=none;endArrow=classic;endSize=12;strokeColor=#595959;exitX=1.000;exitY=0.025;exitDx=0;exitDy=0;entryX=1.000;entryY=0.500;entryDx=0;entryDy=0;" edge="1" parent="1" source="jlxrV1-ftLI8AvpM-f8m-27" target="jlxrV1-ftLI8AvpM-f8m-11">
          <mxGeometry width="50" height="50" relative="1" as="geometry">
            <Array as="points">
              <mxPoint x="1721" y="566" />
              <mxPoint x="1721" y="259" />
            </Array>
          </mxGeometry>
        </mxCell>
        <mxCell id="jlxrV1-ftLI8AvpM-f8m-58" value="" style="html=1;rounded=1;edgeStyle=orthogonalEdgeStyle;dashed=0;startArrow=none;endArrow=classic;endSize=12;strokeColor=#595959;exitX=1.000;exitY=0.119;exitDx=0;exitDy=0;entryX=0.000;entryY=0.500;entryDx=0;entryDy=0;" edge="1" parent="1" source="jlxrV1-ftLI8AvpM-f8m-27" target="jlxrV1-ftLI8AvpM-f8m-17">
          <mxGeometry width="50" height="50" relative="1" as="geometry">
            <Array as="points" />
          </mxGeometry>
        </mxCell>
        <mxCell id="jlxrV1-ftLI8AvpM-f8m-59" value="" style="html=1;rounded=1;edgeStyle=orthogonalEdgeStyle;dashed=0;startArrow=none;endArrow=classic;endSize=12;strokeColor=#595959;exitX=1;exitY=0.75;exitDx=0;exitDy=0;entryX=1.000;entryY=0.500;entryDx=0;entryDy=0;" edge="1" parent="1" source="jlxrV1-ftLI8AvpM-f8m-27" target="jlxrV1-ftLI8AvpM-f8m-18">
          <mxGeometry width="50" height="50" relative="1" as="geometry">
            <Array as="points">
              <mxPoint x="1922" y="727" />
              <mxPoint x="1922" y="366" />
            </Array>
          </mxGeometry>
        </mxCell>
        <mxCell id="jlxrV1-ftLI8AvpM-f8m-60" value="" style="html=1;rounded=1;edgeStyle=orthogonalEdgeStyle;dashed=0;startArrow=none;endArrow=classic;endSize=12;strokeColor=#595959;entryX=0.829;entryY=1.000;entryDx=0;entryDy=0;" edge="1" parent="1" target="jlxrV1-ftLI8AvpM-f8m-19">
          <mxGeometry width="50" height="50" relative="1" as="geometry">
            <Array as="points">
              <mxPoint x="1438" y="620" />
            </Array>
            <mxPoint x="1480" y="620" as="sourcePoint" />
          </mxGeometry>
        </mxCell>
        <mxCell id="jlxrV1-ftLI8AvpM-f8m-61" value="" style="html=1;rounded=1;edgeStyle=orthogonalEdgeStyle;dashed=0;startArrow=none;endArrow=classic;endSize=12;strokeColor=#595959;exitX=0.168;exitY=0.000;exitDx=0;exitDy=0;" edge="1" parent="1" source="jlxrV1-ftLI8AvpM-f8m-27">
          <mxGeometry width="50" height="50" relative="1" as="geometry">
            <Array as="points">
              <mxPoint x="1504" y="347" />
            </Array>
            <mxPoint x="1080" y="347" as="targetPoint" />
          </mxGeometry>
        </mxCell>
        <mxCell id="jlxrV1-ftLI8AvpM-f8m-62" value="" style="html=1;rounded=1;edgeStyle=orthogonalEdgeStyle;dashed=0;startArrow=none;endArrow=classic;endSize=12;strokeColor=#595959;exitX=0.080;exitY=0.000;exitDx=0;exitDy=0;entryX=0.482;entryY=1.000;entryDx=0;entryDy=0;" edge="1" parent="1" source="jlxrV1-ftLI8AvpM-f8m-27" target="jlxrV1-ftLI8AvpM-f8m-28">
          <mxGeometry width="50" height="50" relative="1" as="geometry">
            <Array as="points">
              <mxPoint x="1490" y="362" />
              <mxPoint x="1238" y="362" />
            </Array>
          </mxGeometry>
        </mxCell>
      </root>
    </mxGraphModel>
  </diagram>
  <diagram id="gh24NL4mv3qN6pEzIekY" name="SanPham_Class_Diagram">
    <mxGraphModel grid="1" page="1" gridSize="10" guides="1" tooltips="1" connect="1" arrows="1" fold="1" pageScale="1" pageWidth="850" pageHeight="1100" math="0" shadow="0">
      <root>
        <mxCell id="0" />
        <mxCell id="1" parent="0" />
        <mxCell id="y2Wya7okIwwD4GfDalmy-1" value="&lt;p style=&quot;margin:0px;margin-top:4px;text-align:center;&quot;&gt;&lt;b&gt;ChatLieu&lt;/b&gt;&lt;/p&gt;&lt;hr size=&quot;1&quot;/&gt;&lt;p style=&quot;margin:0 0 0 4px;line-height:1.6;&quot;&gt;+ ChatLieu(Integer, String, boolean): &lt;br/&gt;+ ChatLieu(): &lt;/p&gt;&lt;hr size=&quot;1&quot;/&gt;&lt;p style=&quot;margin:0 0 0 4px;line-height:1.6;&quot;&gt;- ten: String&lt;br/&gt;- trangThai: boolean&lt;br/&gt;- id: Integer&lt;/p&gt;&lt;hr size=&quot;1&quot;/&gt;&lt;p style=&quot;margin:0 0 0 4px;line-height:1.6;&quot;&gt; id: Integer&lt;br/&gt; ten: String&lt;br/&gt; trangThai: boolean&lt;/p&gt;" style="verticalAlign=top;align=left;overflow=fill;fontSize=14;fontFamily=Helvetica;html=1;rounded=0;shadow=0;comic=0;labelBackgroundColor=none;strokeWidth=1;" vertex="1" parent="1">
          <mxGeometry x="170" y="35" width="242" height="250" as="geometry" />
        </mxCell>
        <mxCell id="y2Wya7okIwwD4GfDalmy-2" value="&lt;p style=&quot;margin:0px;margin-top:4px;text-align:center;&quot;&gt;&lt;b&gt;CoAo&lt;/b&gt;&lt;/p&gt;&lt;hr size=&quot;1&quot;/&gt;&lt;p style=&quot;margin:0 0 0 4px;line-height:1.6;&quot;&gt;+ CoAo(Integer, String, boolean): &lt;br/&gt;+ CoAo(): &lt;/p&gt;&lt;hr size=&quot;1&quot;/&gt;&lt;p style=&quot;margin:0 0 0 4px;line-height:1.6;&quot;&gt;- trangThai: boolean&lt;br/&gt;- id: Integer&lt;br/&gt;- ten: String&lt;/p&gt;&lt;hr size=&quot;1&quot;/&gt;&lt;p style=&quot;margin:0 0 0 4px;line-height:1.6;&quot;&gt; id: Integer&lt;br/&gt; ten: String&lt;br/&gt; trangThai: boolean&lt;/p&gt;" style="verticalAlign=top;align=left;overflow=fill;fontSize=14;fontFamily=Helvetica;html=1;rounded=0;shadow=0;comic=0;labelBackgroundColor=none;strokeWidth=1;" vertex="1" parent="1">
          <mxGeometry x="1498" y="420" width="245" height="250" as="geometry" />
        </mxCell>
        <mxCell id="y2Wya7okIwwD4GfDalmy-3" value="&lt;p style=&quot;margin:0px;margin-top:4px;text-align:center;&quot;&gt;&lt;b&gt;DotGiamGia&lt;/b&gt;&lt;/p&gt;&lt;hr size=&quot;1&quot;/&gt;&lt;p style=&quot;margin:0 0 0 4px;line-height:1.6;&quot;&gt;+ DotGiamGia(Integer, String, String, Integer, Integer): &lt;br/&gt;+ DotGiamGia(): &lt;/p&gt;&lt;hr size=&quot;1&quot;/&gt;&lt;p style=&quot;margin:0 0 0 4px;line-height:1.6;&quot;&gt;- id: Integer&lt;br/&gt;- giaTriPhanTram: Integer&lt;br/&gt;- trangThai: Integer&lt;br/&gt;- maDotGiamGia: String&lt;br/&gt;- tenDotGiamGia: String&lt;/p&gt;&lt;hr size=&quot;1&quot;/&gt;&lt;p style=&quot;margin:0 0 0 4px;line-height:1.6;&quot;&gt;+ builder(): DotGiamGiaBuilder&lt;/p&gt;&lt;hr size=&quot;1&quot;/&gt;&lt;p style=&quot;margin:0 0 0 4px;line-height:1.6;&quot;&gt; maDotGiamGia: String&lt;br/&gt; giaTriPhanTram: Integer&lt;br/&gt; id: Integer&lt;br/&gt; tenDotGiamGia: String&lt;br/&gt; trangThai: Integer&lt;/p&gt;" style="verticalAlign=top;align=left;overflow=fill;fontSize=14;fontFamily=Helvetica;html=1;rounded=0;shadow=0;comic=0;labelBackgroundColor=none;strokeWidth=1;" vertex="1" parent="1">
          <mxGeometry x="1011" y="839" width="376" height="354" as="geometry" />
        </mxCell>
        <mxCell id="y2Wya7okIwwD4GfDalmy-4" value="&lt;p style=&quot;margin:0px;margin-top:4px;text-align:center;&quot;&gt;&lt;b&gt;DotGiamGiaSanPham&lt;/b&gt;&lt;/p&gt;&lt;hr size=&quot;1&quot;/&gt;&lt;p style=&quot;margin:0 0 0 4px;line-height:1.6;&quot;&gt;+ DotGiamGiaSanPham(Integer, LocalDateTime, LocalDateTime, SanPhamChiTiet, DotGiamGia): &lt;br/&gt;+ DotGiamGiaSanPham(): &lt;/p&gt;&lt;hr size=&quot;1&quot;/&gt;&lt;p style=&quot;margin:0 0 0 4px;line-height:1.6;&quot;&gt;- thoiGianKetThuc: LocalDateTime&lt;br/&gt;- thoiGianBatDau: LocalDateTime&lt;br/&gt;- sanPhamChiTiet: SanPhamChiTiet&lt;br/&gt;- id: Integer&lt;br/&gt;- dotGiamGia: DotGiamGia&lt;/p&gt;&lt;hr size=&quot;1&quot;/&gt;&lt;p style=&quot;margin:0 0 0 4px;line-height:1.6;&quot;&gt;+ builder(): DotGiamGiaSanPhamBuilder&lt;/p&gt;&lt;hr size=&quot;1&quot;/&gt;&lt;p style=&quot;margin:0 0 0 4px;line-height:1.6;&quot;&gt; thoiGianKetThuc: LocalDateTime&lt;br/&gt; dotGiamGia: DotGiamGia&lt;br/&gt; id: Integer&lt;br/&gt; sanPhamChiTiet: SanPhamChiTiet&lt;br/&gt; thoiGianBatDau: LocalDateTime&lt;/p&gt;" style="verticalAlign=top;align=left;overflow=fill;fontSize=14;fontFamily=Helvetica;html=1;rounded=0;shadow=0;comic=0;labelBackgroundColor=none;strokeWidth=1;" vertex="1" parent="1">
          <mxGeometry x="980" y="1319" width="451" height="354" as="geometry" />
        </mxCell>
        <mxCell id="y2Wya7okIwwD4GfDalmy-5" value="&lt;p style=&quot;margin:0px;margin-top:4px;text-align:center;&quot;&gt;&lt;b&gt;HinhAnh&lt;/b&gt;&lt;/p&gt;&lt;hr size=&quot;1&quot;/&gt;&lt;p style=&quot;margin:0 0 0 4px;line-height:1.6;&quot;&gt;+ HinhAnh(Integer, String, String, String): &lt;br/&gt;+ HinhAnh(): &lt;br/&gt;+ HinhAnh(String, String, String): &lt;/p&gt;&lt;hr size=&quot;1&quot;/&gt;&lt;p style=&quot;margin:0 0 0 4px;line-height:1.6;&quot;&gt;- imageId: String&lt;br/&gt;- id: Integer&lt;br/&gt;- imageName: String&lt;br/&gt;- imageUrl: String&lt;/p&gt;&lt;hr size=&quot;1&quot;/&gt;&lt;p style=&quot;margin:0 0 0 4px;line-height:1.6;&quot;&gt;+ toString(): String&lt;/p&gt;&lt;hr size=&quot;1&quot;/&gt;&lt;p style=&quot;margin:0 0 0 4px;line-height:1.6;&quot;&gt; imageName: String&lt;br/&gt; id: Integer&lt;br/&gt; imageId: String&lt;br/&gt; imageUrl: String&lt;/p&gt;" style="verticalAlign=top;align=left;overflow=fill;fontSize=14;fontFamily=Helvetica;html=1;rounded=0;shadow=0;comic=0;labelBackgroundColor=none;strokeWidth=1;" vertex="1" parent="1">
          <mxGeometry x="852" width="268" height="330" as="geometry" />
        </mxCell>
        <mxCell id="y2Wya7okIwwD4GfDalmy-6" value="&lt;p style=&quot;margin:0px;margin-top:4px;text-align:center;&quot;&gt;&lt;b&gt;KichCo&lt;/b&gt;&lt;/p&gt;&lt;hr size=&quot;1&quot;/&gt;&lt;p style=&quot;margin:0 0 0 4px;line-height:1.6;&quot;&gt;+ KichCo(Integer, String, boolean): &lt;br/&gt;+ KichCo(): &lt;/p&gt;&lt;hr size=&quot;1&quot;/&gt;&lt;p style=&quot;margin:0 0 0 4px;line-height:1.6;&quot;&gt;- id: Integer&lt;br/&gt;- trangThai: boolean&lt;br/&gt;- ten: String&lt;/p&gt;&lt;hr size=&quot;1&quot;/&gt;&lt;p style=&quot;margin:0 0 0 4px;line-height:1.6;&quot;&gt; id: Integer&lt;br/&gt; ten: String&lt;br/&gt; trangThai: boolean&lt;/p&gt;" style="verticalAlign=top;align=left;overflow=fill;fontSize=14;fontFamily=Helvetica;html=1;rounded=0;shadow=0;comic=0;labelBackgroundColor=none;strokeWidth=1;" vertex="1" parent="1">
          <mxGeometry x="852" y="420" width="268" height="250" as="geometry" />
        </mxCell>
        <mxCell id="y2Wya7okIwwD4GfDalmy-7" value="&lt;p style=&quot;margin:0px;margin-top:4px;text-align:center;&quot;&gt;&lt;b&gt;KieuDang&lt;/b&gt;&lt;/p&gt;&lt;hr size=&quot;1&quot;/&gt;&lt;p style=&quot;margin:0 0 0 4px;line-height:1.6;&quot;&gt;+ KieuDang(Integer, String, boolean): &lt;br/&gt;+ KieuDang(): &lt;/p&gt;&lt;hr size=&quot;1&quot;/&gt;&lt;p style=&quot;margin:0 0 0 4px;line-height:1.6;&quot;&gt;- id: Integer&lt;br/&gt;- ten: String&lt;br/&gt;- trangThai: boolean&lt;/p&gt;&lt;hr size=&quot;1&quot;/&gt;&lt;p style=&quot;margin:0 0 0 4px;line-height:1.6;&quot;&gt; id: Integer&lt;br/&gt; ten: String&lt;br/&gt; trangThai: boolean&lt;/p&gt;" style="verticalAlign=top;align=left;overflow=fill;fontSize=14;fontFamily=Helvetica;html=1;rounded=0;shadow=0;comic=0;labelBackgroundColor=none;strokeWidth=1;" vertex="1" parent="1">
          <mxGeometry x="1498" y="40" width="242" height="251" as="geometry" />
        </mxCell>
        <mxCell id="y2Wya7okIwwD4GfDalmy-8" value="&lt;p style=&quot;margin:0px;margin-top:4px;text-align:center;&quot;&gt;&lt;b&gt;KieuThietKe&lt;/b&gt;&lt;/p&gt;&lt;hr size=&quot;1&quot;/&gt;&lt;p style=&quot;margin:0 0 0 4px;line-height:1.6;&quot;&gt;+ KieuThietKe(Integer, String, boolean): &lt;br/&gt;+ KieuThietKe(): &lt;/p&gt;&lt;hr size=&quot;1&quot;/&gt;&lt;p style=&quot;margin:0 0 0 4px;line-height:1.6;&quot;&gt;- ten: String&lt;br/&gt;- id: Integer&lt;br/&gt;- trangThai: boolean&lt;/p&gt;&lt;hr size=&quot;1&quot;/&gt;&lt;p style=&quot;margin:0 0 0 4px;line-height:1.6;&quot;&gt; id: Integer&lt;br/&gt; ten: String&lt;br/&gt; trangThai: boolean&lt;/p&gt;" style="verticalAlign=top;align=left;overflow=fill;fontSize=14;fontFamily=Helvetica;html=1;rounded=0;shadow=0;comic=0;labelBackgroundColor=none;strokeWidth=1;" vertex="1" parent="1">
          <mxGeometry x="1175" y="40" width="255" height="251" as="geometry" />
        </mxCell>
        <mxCell id="y2Wya7okIwwD4GfDalmy-9" value="&lt;p style=&quot;margin:0px;margin-top:4px;text-align:center;&quot;&gt;&lt;b&gt;MauSac&lt;/b&gt;&lt;/p&gt;&lt;hr size=&quot;1&quot;/&gt;&lt;p style=&quot;margin:0 0 0 4px;line-height:1.6;&quot;&gt;+ MauSac(): &lt;br/&gt;+ MauSac(Integer, String, String, boolean, MauSacImage): &lt;/p&gt;&lt;hr size=&quot;1&quot;/&gt;&lt;p style=&quot;margin:0 0 0 4px;line-height:1.6;&quot;&gt;- id: Integer&lt;br/&gt;- trangThai: boolean&lt;br/&gt;- ma: String&lt;br/&gt;- ten: String&lt;br/&gt;- image: MauSacImage&lt;/p&gt;&lt;hr size=&quot;1&quot;/&gt;&lt;p style=&quot;margin:0 0 0 4px;line-height:1.6;&quot;&gt; image: MauSacImage&lt;br/&gt; trangThai: boolean&lt;br/&gt; id: Integer&lt;br/&gt; ten: String&lt;br/&gt; ma: String&lt;/p&gt;" style="verticalAlign=top;align=left;overflow=fill;fontSize=14;fontFamily=Helvetica;html=1;rounded=0;shadow=0;comic=0;labelBackgroundColor=none;strokeWidth=1;" vertex="1" parent="1">
          <mxGeometry x="410" y="372" width="369" height="338" as="geometry" />
        </mxCell>
        <mxCell id="y2Wya7okIwwD4GfDalmy-10" value="&lt;p style=&quot;margin:0px;margin-top:4px;text-align:center;&quot;&gt;&lt;b&gt;MauSacImage&lt;/b&gt;&lt;/p&gt;&lt;hr size=&quot;1&quot;/&gt;&lt;p style=&quot;margin:0 0 0 4px;line-height:1.6;&quot;&gt;+ MauSacImage(Integer, String, String, String): &lt;br/&gt;+ MauSacImage(): &lt;br/&gt;+ MauSacImage(String, String, String): &lt;/p&gt;&lt;hr size=&quot;1&quot;/&gt;&lt;p style=&quot;margin:0 0 0 4px;line-height:1.6;&quot;&gt;- imageId: String&lt;br/&gt;- id: Integer&lt;br/&gt;- imageUrl: String&lt;br/&gt;- imageName: String&lt;/p&gt;&lt;hr size=&quot;1&quot;/&gt;&lt;p style=&quot;margin:0 0 0 4px;line-height:1.6;&quot;&gt; imageName: String&lt;br/&gt; id: Integer&lt;br/&gt; imageId: String&lt;br/&gt; imageUrl: String&lt;/p&gt;" style="verticalAlign=top;align=left;overflow=fill;fontSize=14;fontFamily=Helvetica;html=1;rounded=0;shadow=0;comic=0;labelBackgroundColor=none;strokeWidth=1;" vertex="1" parent="1">
          <mxGeometry x="479" width="300" height="316" as="geometry" />
        </mxCell>
        <mxCell id="y2Wya7okIwwD4GfDalmy-11" value="&lt;p style=&quot;margin:0px;margin-top:4px;text-align:center;&quot;&gt;&lt;b&gt;SanPham&lt;/b&gt;&lt;/p&gt;&lt;hr size=&quot;1&quot;/&gt;&lt;p style=&quot;margin:0 0 0 4px;line-height:1.6;&quot;&gt;+ SanPham(Integer, String, String, String, boolean, List&amp;lt;SanPhamChiTiet&amp;gt;): &lt;br/&gt;+ SanPham(): &lt;/p&gt;&lt;hr size=&quot;1&quot;/&gt;&lt;p style=&quot;margin:0 0 0 4px;line-height:1.6;&quot;&gt;- sanPhamChiTiets: List&amp;lt;SanPhamChiTiet&amp;gt;&lt;br/&gt;- ten: String&lt;br/&gt;- trangThai: boolean&lt;br/&gt;- id: Integer&lt;br/&gt;- ma: String&lt;br/&gt;- moTa: String&lt;/p&gt;&lt;hr size=&quot;1&quot;/&gt;&lt;p style=&quot;margin:0 0 0 4px;line-height:1.6;&quot;&gt; trangThai: boolean&lt;br/&gt; sanPhamChiTiets: List&amp;lt;SanPhamChiTiet&amp;gt;&lt;br/&gt; id: Integer&lt;br/&gt; ten: String&lt;br/&gt; moTa: String&lt;br/&gt; ma: String&lt;/p&gt;" style="verticalAlign=top;align=left;overflow=fill;fontSize=14;fontFamily=Helvetica;html=1;rounded=0;shadow=0;comic=0;labelBackgroundColor=none;strokeWidth=1;" vertex="1" parent="1">
          <mxGeometry x="-96" y="348" width="466" height="377" as="geometry" />
        </mxCell>
        <mxCell id="y2Wya7okIwwD4GfDalmy-12" value="&lt;p style=&quot;margin:0px;margin-top:4px;text-align:center;&quot;&gt;&lt;b style=&quot;background-color: rgb(234, 241, 252);&quot;&gt;SanPhamChiTiet&lt;/b&gt;&lt;/p&gt;&lt;hr size=&quot;1&quot;&gt;&lt;p style=&quot;margin:0 0 0 4px;line-height:1.6;&quot;&gt;+ SanPhamChiTiet(): &lt;br&gt;+ SanPhamChiTiet(Integer, BigDecimal, BigDecimal, int, boolean, SanPham, MauSac, KichCo, KieuDang, KieuThietKe, TayAo, CoAo, ChatLieu, List&amp;lt;HinhAnh&amp;gt;): &lt;/p&gt;&lt;hr size=&quot;1&quot;&gt;&lt;p style=&quot;margin:0 0 0 4px;line-height:1.6;&quot;&gt;- thietKe: KieuThietKe&lt;br&gt;- coAo: CoAo&lt;br&gt;- giaBan: BigDecimal&lt;br&gt;- sanPham: SanPham&lt;br&gt;- id: Integer&lt;br&gt;- soLuongTon: int&lt;br&gt;- trangThai: boolean&lt;br&gt;- hinhAnhs: List&amp;lt;HinhAnh&amp;gt;&lt;br&gt;- kichCo: KichCo&lt;br&gt;- tayAo: TayAo&lt;br&gt;- mauSac: MauSac&lt;br&gt;- kieuDang: KieuDang&lt;br&gt;- chatLieu: ChatLieu&lt;br&gt;- giaNhap: BigDecimal&lt;/p&gt;&lt;hr size=&quot;1&quot;&gt;&lt;p style=&quot;margin:0 0 0 4px;line-height:1.6;&quot;&gt;+ builder(): SanPhamChiTietBuilder&lt;br&gt;+ toString(): String&lt;/p&gt;&lt;hr size=&quot;1&quot;&gt;&lt;p style=&quot;margin:0 0 0 4px;line-height:1.6;&quot;&gt; giaNhap: BigDecimal&lt;br&gt; hinhAnh: HinhAnh&lt;br&gt; chatLieu: ChatLieu&lt;br&gt; giaBan: BigDecimal&lt;br&gt; coAo: CoAo&lt;br&gt; id: Integer&lt;br&gt; tayAo: TayAo&lt;br&gt; kieuDang: KieuDang&lt;br&gt; sanPham: SanPham&lt;br&gt; hinhAnhs: List&amp;lt;HinhAnh&amp;gt;&lt;br&gt; thietKe: KieuThietKe&lt;br&gt; mauSac: MauSac&lt;br&gt; soLuongTon: int&lt;br&gt; trangThai: boolean&lt;br&gt; kichCo: KichCo&lt;/p&gt;" style="verticalAlign=top;align=left;overflow=fill;fontSize=14;fontFamily=Helvetica;html=1;rounded=0;shadow=0;comic=0;labelBackgroundColor=none;strokeWidth=1;fillColor=#dae8fc;strokeColor=#6c8ebf;" vertex="1" parent="1">
          <mxGeometry x="369" y="839" width="422" height="834" as="geometry" />
        </mxCell>
        <mxCell id="y2Wya7okIwwD4GfDalmy-13" value="&lt;p style=&quot;margin:0px;margin-top:4px;text-align:center;&quot;&gt;&lt;b&gt;TayAo&lt;/b&gt;&lt;/p&gt;&lt;hr size=&quot;1&quot;/&gt;&lt;p style=&quot;margin:0 0 0 4px;line-height:1.6;&quot;&gt;+ TayAo(Integer, String, boolean): &lt;br/&gt;+ TayAo(): &lt;/p&gt;&lt;hr size=&quot;1&quot;/&gt;&lt;p style=&quot;margin:0 0 0 4px;line-height:1.6;&quot;&gt;- id: Integer&lt;br/&gt;- ten: String&lt;br/&gt;- trangThai: boolean&lt;/p&gt;&lt;hr size=&quot;1&quot;/&gt;&lt;p style=&quot;margin:0 0 0 4px;line-height:1.6;&quot;&gt; id: Integer&lt;br/&gt; ten: String&lt;br/&gt; trangThai: boolean&lt;/p&gt;" style="verticalAlign=top;align=left;overflow=fill;fontSize=14;fontFamily=Helvetica;html=1;rounded=0;shadow=0;comic=0;labelBackgroundColor=none;strokeWidth=1;" vertex="1" parent="1">
          <mxGeometry x="1175" y="420" width="250" height="250" as="geometry" />
        </mxCell>
        <mxCell id="y2Wya7okIwwD4GfDalmy-14" value="" style="html=1;rounded=1;edgeStyle=orthogonalEdgeStyle;dashed=0;startArrow=diamondThinstartSize=12;endArrow=openThin;endSize=12;strokeColor=#595959;exitX=0.500;exitY=0.000;exitDx=0;exitDy=0;entryX=0.516;entryY=0.997;entryDx=0;entryDy=0;entryPerimeter=0;" edge="1" parent="1" source="y2Wya7okIwwD4GfDalmy-4" target="y2Wya7okIwwD4GfDalmy-3">
          <mxGeometry width="50" height="50" relative="1" as="geometry">
            <Array as="points" />
          </mxGeometry>
        </mxCell>
        <mxCell id="y2Wya7okIwwD4GfDalmy-15" value="1" style="edgeLabel;resizable=0;html=1;align=left;verticalAlign=top;strokeColor=default;" connectable="0" vertex="1" parent="y2Wya7okIwwD4GfDalmy-14">
          <mxGeometry x="129" y="1729" as="geometry" />
        </mxCell>
        <mxCell id="y2Wya7okIwwD4GfDalmy-16" value="1" style="edgeLabel;resizable=0;html=1;align=left;verticalAlign=top;strokeColor=default;" connectable="0" vertex="1" parent="y2Wya7okIwwD4GfDalmy-14">
          <mxGeometry x="1220" y="1200" as="geometry" />
        </mxCell>
        <mxCell id="y2Wya7okIwwD4GfDalmy-17" value="dotGiamGia" style="edgeLabel;resizable=0;html=1;align=left;verticalAlign=top;strokeColor=default;" connectable="0" vertex="1" parent="y2Wya7okIwwD4GfDalmy-14">
          <mxGeometry x="1231" y="1200" as="geometry" />
        </mxCell>
        <mxCell id="y2Wya7okIwwD4GfDalmy-18" value="" style="html=1;rounded=1;edgeStyle=orthogonalEdgeStyle;dashed=0;startArrow=diamondThinstartSize=12;endArrow=openThin;endSize=12;strokeColor=#595959;exitX=0.500;exitY=0.000;exitDx=0;exitDy=0;entryX=1;entryY=0.5;entryDx=0;entryDy=0;" edge="1" parent="1" source="y2Wya7okIwwD4GfDalmy-4" target="y2Wya7okIwwD4GfDalmy-12">
          <mxGeometry width="50" height="50" relative="1" as="geometry">
            <Array as="points">
              <mxPoint x="1205" y="1256" />
            </Array>
          </mxGeometry>
        </mxCell>
        <mxCell id="y2Wya7okIwwD4GfDalmy-19" value="1" style="edgeLabel;resizable=0;html=1;align=left;verticalAlign=top;strokeColor=default;" connectable="0" vertex="1" parent="y2Wya7okIwwD4GfDalmy-18">
          <mxGeometry x="1282" y="1476" as="geometry" />
        </mxCell>
        <mxCell id="y2Wya7okIwwD4GfDalmy-20" value="1" style="edgeLabel;resizable=0;html=1;align=left;verticalAlign=top;strokeColor=default;" connectable="0" vertex="1" parent="y2Wya7okIwwD4GfDalmy-18">
          <mxGeometry x="800" y="1260" as="geometry" />
        </mxCell>
        <mxCell id="y2Wya7okIwwD4GfDalmy-21" value="sanPhamChiTiet" style="edgeLabel;resizable=0;html=1;align=left;verticalAlign=top;strokeColor=default;" connectable="0" vertex="1" parent="y2Wya7okIwwD4GfDalmy-18">
          <mxGeometry x="811" y="1260" as="geometry" />
        </mxCell>
        <mxCell id="y2Wya7okIwwD4GfDalmy-22" value="" style="html=1;rounded=1;edgeStyle=orthogonalEdgeStyle;dashed=0;startArrow=diamondThinstartSize=12;endArrow=openThin;endSize=12;strokeColor=#595959;exitX=0.500;exitY=0.000;exitDx=0;exitDy=0;entryX=0.500;entryY=1.000;entryDx=0;entryDy=0;" edge="1" parent="1" source="y2Wya7okIwwD4GfDalmy-9" target="y2Wya7okIwwD4GfDalmy-10">
          <mxGeometry width="50" height="50" relative="1" as="geometry">
            <Array as="points" />
          </mxGeometry>
        </mxCell>
        <mxCell id="y2Wya7okIwwD4GfDalmy-23" value="1" style="edgeLabel;resizable=0;html=1;align=left;verticalAlign=top;strokeColor=default;" connectable="0" vertex="1" parent="y2Wya7okIwwD4GfDalmy-22">
          <mxGeometry x="569" y="341" as="geometry" />
        </mxCell>
        <mxCell id="y2Wya7okIwwD4GfDalmy-24" value="1" style="edgeLabel;resizable=0;html=1;align=left;verticalAlign=top;strokeColor=default;" connectable="0" vertex="1" parent="y2Wya7okIwwD4GfDalmy-22">
          <mxGeometry x="620" y="320" as="geometry" />
        </mxCell>
        <mxCell id="y2Wya7okIwwD4GfDalmy-25" value="image" style="edgeLabel;resizable=0;html=1;align=left;verticalAlign=top;strokeColor=default;" connectable="0" vertex="1" parent="y2Wya7okIwwD4GfDalmy-22">
          <mxGeometry x="631" y="320" as="geometry" />
        </mxCell>
        <mxCell id="y2Wya7okIwwD4GfDalmy-26" value="" style="html=1;rounded=1;edgeStyle=orthogonalEdgeStyle;dashed=0;startArrow=diamondThinstartSize=12;endArrow=openThin;endSize=12;strokeColor=#595959;exitX=0.250;exitY=1.000;exitDx=0;exitDy=0;entryX=0.250;entryY=0.000;entryDx=0;entryDy=0;" edge="1" parent="1" source="y2Wya7okIwwD4GfDalmy-11" target="y2Wya7okIwwD4GfDalmy-12">
          <mxGeometry width="50" height="50" relative="1" as="geometry">
            <Array as="points">
              <mxPoint x="21" y="810" />
              <mxPoint x="475" y="810" />
            </Array>
          </mxGeometry>
        </mxCell>
        <mxCell id="y2Wya7okIwwD4GfDalmy-27" value="1" style="edgeLabel;resizable=0;html=1;align=left;verticalAlign=top;strokeColor=default;" connectable="0" vertex="1" parent="y2Wya7okIwwD4GfDalmy-26">
          <mxGeometry x="10" y="730" as="geometry" />
        </mxCell>
        <mxCell id="y2Wya7okIwwD4GfDalmy-28" value="*" style="edgeLabel;resizable=0;html=1;align=left;verticalAlign=top;strokeColor=default;" connectable="0" vertex="1" parent="y2Wya7okIwwD4GfDalmy-26">
          <mxGeometry x="466" y="810" as="geometry" />
        </mxCell>
        <mxCell id="y2Wya7okIwwD4GfDalmy-29" value="sanPhamChiTiets" style="edgeLabel;resizable=0;html=1;align=left;verticalAlign=top;strokeColor=default;" connectable="0" vertex="1" parent="y2Wya7okIwwD4GfDalmy-26">
          <mxGeometry x="475" y="814" as="geometry" />
        </mxCell>
        <mxCell id="y2Wya7okIwwD4GfDalmy-30" value="" style="html=1;rounded=1;edgeStyle=orthogonalEdgeStyle;dashed=0;startArrow=diamondThinstartSize=12;endArrow=openThin;endSize=12;strokeColor=#595959;exitX=0.750;exitY=0.000;exitDx=0;exitDy=0;entryX=0.500;entryY=1.000;entryDx=0;entryDy=0;" edge="1" parent="1" source="y2Wya7okIwwD4GfDalmy-12" target="y2Wya7okIwwD4GfDalmy-1">
          <mxGeometry width="50" height="50" relative="1" as="geometry">
            <Array as="points">
              <mxPoint x="686" y="810" />
              <mxPoint x="980" y="810" />
              <mxPoint x="980" y="756" />
              <mxPoint x="390" y="756" />
              <mxPoint x="390" y="320" />
              <mxPoint x="291" y="320" />
            </Array>
          </mxGeometry>
        </mxCell>
        <mxCell id="y2Wya7okIwwD4GfDalmy-31" value="1" style="edgeLabel;resizable=0;html=1;align=left;verticalAlign=top;strokeColor=default;" connectable="0" vertex="1" parent="y2Wya7okIwwD4GfDalmy-30">
          <mxGeometry x="768" y="736" as="geometry" />
        </mxCell>
        <mxCell id="y2Wya7okIwwD4GfDalmy-32" value="1" style="edgeLabel;resizable=0;html=1;align=left;verticalAlign=top;strokeColor=default;" connectable="0" vertex="1" parent="y2Wya7okIwwD4GfDalmy-30">
          <mxGeometry x="280" y="290" as="geometry" />
        </mxCell>
        <mxCell id="y2Wya7okIwwD4GfDalmy-33" value="chatLieu" style="edgeLabel;resizable=0;html=1;align=left;verticalAlign=top;strokeColor=default;" connectable="0" vertex="1" parent="y2Wya7okIwwD4GfDalmy-30">
          <mxGeometry x="291" y="290" as="geometry" />
        </mxCell>
        <mxCell id="y2Wya7okIwwD4GfDalmy-34" value="" style="html=1;rounded=1;edgeStyle=orthogonalEdgeStyle;dashed=0;startArrow=diamondThinstartSize=12;endArrow=openThin;endSize=12;strokeColor=#595959;exitX=0.750;exitY=0.000;exitDx=0;exitDy=0;entryX=0.500;entryY=1.000;entryDx=0;entryDy=0;" edge="1" parent="1" source="y2Wya7okIwwD4GfDalmy-12" target="y2Wya7okIwwD4GfDalmy-2">
          <mxGeometry width="50" height="50" relative="1" as="geometry">
            <Array as="points">
              <mxPoint x="686" y="810" />
              <mxPoint x="980" y="810" />
              <mxPoint x="980" y="756" />
              <mxPoint x="1620" y="756" />
            </Array>
          </mxGeometry>
        </mxCell>
        <mxCell id="y2Wya7okIwwD4GfDalmy-35" value="1" style="edgeLabel;resizable=0;html=1;align=left;verticalAlign=top;strokeColor=default;" connectable="0" vertex="1" parent="y2Wya7okIwwD4GfDalmy-34">
          <mxGeometry x="729" y="790" as="geometry" />
        </mxCell>
        <mxCell id="y2Wya7okIwwD4GfDalmy-36" value="1" style="edgeLabel;resizable=0;html=1;align=left;verticalAlign=top;strokeColor=default;" connectable="0" vertex="1" parent="y2Wya7okIwwD4GfDalmy-34">
          <mxGeometry x="1609" y="680" as="geometry" />
        </mxCell>
        <mxCell id="y2Wya7okIwwD4GfDalmy-37" value="coAo" style="edgeLabel;resizable=0;html=1;align=left;verticalAlign=top;strokeColor=default;" connectable="0" vertex="1" parent="y2Wya7okIwwD4GfDalmy-34">
          <mxGeometry x="1620" y="680" as="geometry" />
        </mxCell>
        <mxCell id="y2Wya7okIwwD4GfDalmy-38" value="" style="html=1;rounded=1;edgeStyle=orthogonalEdgeStyle;dashed=0;startArrow=diamondThinstartSize=12;endArrow=openThin;endSize=12;strokeColor=#595959;exitX=0.750;exitY=0.000;exitDx=0;exitDy=0;entryX=0.5;entryY=1;entryDx=0;entryDy=0;" edge="1" parent="1" source="y2Wya7okIwwD4GfDalmy-12" target="y2Wya7okIwwD4GfDalmy-5">
          <mxGeometry width="50" height="50" relative="1" as="geometry">
            <Array as="points">
              <mxPoint x="685" y="810" />
              <mxPoint x="980" y="810" />
              <mxPoint x="980" y="756" />
              <mxPoint x="1139" y="756" />
              <mxPoint x="1139" y="380" />
              <mxPoint x="986" y="380" />
            </Array>
            <mxPoint x="1139" y="332" as="targetPoint" />
          </mxGeometry>
        </mxCell>
        <mxCell id="y2Wya7okIwwD4GfDalmy-39" value="1" style="edgeLabel;resizable=0;html=1;align=left;verticalAlign=top;strokeColor=default;" connectable="0" vertex="1" parent="y2Wya7okIwwD4GfDalmy-38">
          <mxGeometry x="825" y="736" as="geometry" />
        </mxCell>
        <mxCell id="y2Wya7okIwwD4GfDalmy-40" value="*" style="edgeLabel;resizable=0;html=1;align=left;verticalAlign=top;strokeColor=default;" connectable="0" vertex="1" parent="y2Wya7okIwwD4GfDalmy-38">
          <mxGeometry x="980" y="348" as="geometry" />
        </mxCell>
        <mxCell id="y2Wya7okIwwD4GfDalmy-41" value="hinhAnhs" style="edgeLabel;resizable=0;html=1;align=left;verticalAlign=top;strokeColor=default;" connectable="0" vertex="1" parent="y2Wya7okIwwD4GfDalmy-38">
          <mxGeometry x="989" y="348" as="geometry" />
        </mxCell>
        <mxCell id="y2Wya7okIwwD4GfDalmy-42" value="" style="html=1;rounded=1;edgeStyle=orthogonalEdgeStyle;dashed=0;startArrow=diamondThinstartSize=12;endArrow=openThin;endSize=12;strokeColor=#595959;exitX=0.750;exitY=0.000;exitDx=0;exitDy=0;" edge="1" parent="1" source="y2Wya7okIwwD4GfDalmy-12">
          <mxGeometry width="50" height="50" relative="1" as="geometry">
            <Array as="points">
              <mxPoint x="685" y="810" />
              <mxPoint x="980" y="810" />
            </Array>
            <mxPoint x="980" y="670" as="targetPoint" />
          </mxGeometry>
        </mxCell>
        <mxCell id="y2Wya7okIwwD4GfDalmy-43" value="1" style="edgeLabel;resizable=0;html=1;align=left;verticalAlign=top;strokeColor=default;" connectable="0" vertex="1" parent="y2Wya7okIwwD4GfDalmy-42">
          <mxGeometry x="709" y="790" as="geometry" />
        </mxCell>
        <mxCell id="y2Wya7okIwwD4GfDalmy-44" value="1" style="edgeLabel;resizable=0;html=1;align=left;verticalAlign=top;strokeColor=default;" connectable="0" vertex="1" parent="y2Wya7okIwwD4GfDalmy-42">
          <mxGeometry x="969" y="680" as="geometry" />
        </mxCell>
        <mxCell id="y2Wya7okIwwD4GfDalmy-45" value="kichCo" style="edgeLabel;resizable=0;html=1;align=left;verticalAlign=top;strokeColor=default;" connectable="0" vertex="1" parent="y2Wya7okIwwD4GfDalmy-42">
          <mxGeometry x="980" y="680" as="geometry" />
        </mxCell>
        <mxCell id="y2Wya7okIwwD4GfDalmy-46" value="" style="html=1;rounded=1;edgeStyle=orthogonalEdgeStyle;dashed=0;startArrow=diamondThinstartSize=12;endArrow=openThin;endSize=12;strokeColor=#595959;exitX=0.750;exitY=0.000;exitDx=0;exitDy=0;entryX=0.500;entryY=1.000;entryDx=0;entryDy=0;" edge="1" parent="1" source="y2Wya7okIwwD4GfDalmy-12" target="y2Wya7okIwwD4GfDalmy-7">
          <mxGeometry width="50" height="50" relative="1" as="geometry">
            <Array as="points">
              <mxPoint x="685" y="810" />
              <mxPoint x="980" y="810" />
              <mxPoint x="980" y="756" />
              <mxPoint x="1460" y="756" />
              <mxPoint x="1460" y="360" />
              <mxPoint x="1619" y="360" />
            </Array>
          </mxGeometry>
        </mxCell>
        <mxCell id="y2Wya7okIwwD4GfDalmy-47" value="1" style="edgeLabel;resizable=0;html=1;align=left;verticalAlign=top;strokeColor=default;" connectable="0" vertex="1" parent="y2Wya7okIwwD4GfDalmy-46">
          <mxGeometry x="680" y="790" as="geometry" />
        </mxCell>
        <mxCell id="y2Wya7okIwwD4GfDalmy-48" value="1" style="edgeLabel;resizable=0;html=1;align=left;verticalAlign=top;strokeColor=default;" connectable="0" vertex="1" parent="y2Wya7okIwwD4GfDalmy-46">
          <mxGeometry x="1610" y="308" as="geometry" />
        </mxCell>
        <mxCell id="y2Wya7okIwwD4GfDalmy-49" value="kieuDang" style="edgeLabel;resizable=0;html=1;align=left;verticalAlign=top;strokeColor=default;" connectable="0" vertex="1" parent="y2Wya7okIwwD4GfDalmy-46">
          <mxGeometry x="1621" y="308" as="geometry" />
        </mxCell>
        <mxCell id="y2Wya7okIwwD4GfDalmy-50" value="" style="html=1;rounded=1;edgeStyle=orthogonalEdgeStyle;dashed=0;startArrow=diamondThinstartSize=12;endArrow=openThin;endSize=12;strokeColor=#595959;exitX=0.750;exitY=0.000;exitDx=0;exitDy=0;entryX=0.5;entryY=1;entryDx=0;entryDy=0;" edge="1" parent="1" source="y2Wya7okIwwD4GfDalmy-12" target="y2Wya7okIwwD4GfDalmy-8">
          <mxGeometry width="50" height="50" relative="1" as="geometry">
            <Array as="points">
              <mxPoint x="685" y="810" />
              <mxPoint x="980" y="810" />
              <mxPoint x="980" y="756" />
              <mxPoint x="1460" y="756" />
              <mxPoint x="1460" y="360" />
              <mxPoint x="1303" y="360" />
            </Array>
          </mxGeometry>
        </mxCell>
        <mxCell id="y2Wya7okIwwD4GfDalmy-51" value="1" style="edgeLabel;resizable=0;html=1;align=left;verticalAlign=top;strokeColor=default;" connectable="0" vertex="1" parent="y2Wya7okIwwD4GfDalmy-50">
          <mxGeometry x="675" y="818" as="geometry" />
        </mxCell>
        <mxCell id="y2Wya7okIwwD4GfDalmy-52" value="1" style="edgeLabel;resizable=0;html=1;align=left;verticalAlign=top;strokeColor=default;" connectable="0" vertex="1" parent="y2Wya7okIwwD4GfDalmy-50">
          <mxGeometry x="1290" y="308" as="geometry" />
        </mxCell>
        <mxCell id="y2Wya7okIwwD4GfDalmy-53" value="thietKe" style="edgeLabel;resizable=0;html=1;align=left;verticalAlign=top;strokeColor=default;" connectable="0" vertex="1" parent="y2Wya7okIwwD4GfDalmy-50">
          <mxGeometry x="1301" y="308" as="geometry" />
        </mxCell>
        <mxCell id="y2Wya7okIwwD4GfDalmy-54" value="" style="html=1;rounded=1;edgeStyle=orthogonalEdgeStyle;dashed=0;startArrow=diamondThinstartSize=12;endArrow=openThin;endSize=12;strokeColor=#595959;exitX=0.750;exitY=0.000;exitDx=0;exitDy=0;entryX=0.500;entryY=1.000;entryDx=0;entryDy=0;" edge="1" parent="1" source="y2Wya7okIwwD4GfDalmy-12" target="y2Wya7okIwwD4GfDalmy-9">
          <mxGeometry width="50" height="50" relative="1" as="geometry">
            <Array as="points">
              <mxPoint x="685" y="810" />
              <mxPoint x="980" y="810" />
              <mxPoint x="980" y="756" />
              <mxPoint x="595" y="756" />
              <mxPoint x="595" y="710" />
            </Array>
          </mxGeometry>
        </mxCell>
        <mxCell id="y2Wya7okIwwD4GfDalmy-55" value="1" style="edgeLabel;resizable=0;html=1;align=left;verticalAlign=top;strokeColor=default;" connectable="0" vertex="1" parent="y2Wya7okIwwD4GfDalmy-54">
          <mxGeometry x="641" y="736" as="geometry" />
        </mxCell>
        <mxCell id="y2Wya7okIwwD4GfDalmy-56" value="1" style="edgeLabel;resizable=0;html=1;align=left;verticalAlign=top;strokeColor=default;" connectable="0" vertex="1" parent="y2Wya7okIwwD4GfDalmy-54">
          <mxGeometry x="590" y="720" as="geometry" />
        </mxCell>
        <mxCell id="y2Wya7okIwwD4GfDalmy-57" value="mauSac" style="edgeLabel;resizable=0;html=1;align=left;verticalAlign=top;strokeColor=default;" connectable="0" vertex="1" parent="y2Wya7okIwwD4GfDalmy-54">
          <mxGeometry x="601" y="720" as="geometry" />
        </mxCell>
        <mxCell id="y2Wya7okIwwD4GfDalmy-58" value="" style="html=1;rounded=1;edgeStyle=orthogonalEdgeStyle;dashed=0;startArrow=diamondThinstartSize=12;endArrow=openThin;endSize=12;strokeColor=#595959;exitX=0.750;exitY=0.000;exitDx=0;exitDy=0;entryX=0.750;entryY=1.000;entryDx=0;entryDy=0;" edge="1" parent="1" source="y2Wya7okIwwD4GfDalmy-12" target="y2Wya7okIwwD4GfDalmy-11">
          <mxGeometry width="50" height="50" relative="1" as="geometry">
            <Array as="points">
              <mxPoint x="685" y="810" />
              <mxPoint x="980" y="810" />
              <mxPoint x="980" y="756" />
              <mxPoint x="254" y="756" />
              <mxPoint x="254" y="725" />
            </Array>
          </mxGeometry>
        </mxCell>
        <mxCell id="y2Wya7okIwwD4GfDalmy-59" value="1" style="edgeLabel;resizable=0;html=1;align=left;verticalAlign=top;strokeColor=default;" connectable="0" vertex="1" parent="y2Wya7okIwwD4GfDalmy-58">
          <mxGeometry x="473" y="736" as="geometry" />
        </mxCell>
        <mxCell id="y2Wya7okIwwD4GfDalmy-60" value="1" style="edgeLabel;resizable=0;html=1;align=left;verticalAlign=top;strokeColor=default;" connectable="0" vertex="1" parent="y2Wya7okIwwD4GfDalmy-58">
          <mxGeometry x="250" y="730" as="geometry" />
        </mxCell>
        <mxCell id="y2Wya7okIwwD4GfDalmy-61" value="sanPham" style="edgeLabel;resizable=0;html=1;align=left;verticalAlign=top;strokeColor=default;" connectable="0" vertex="1" parent="y2Wya7okIwwD4GfDalmy-58">
          <mxGeometry x="261" y="730" as="geometry" />
        </mxCell>
        <mxCell id="y2Wya7okIwwD4GfDalmy-62" value="" style="html=1;rounded=1;edgeStyle=orthogonalEdgeStyle;dashed=0;startArrow=diamondThinstartSize=12;endArrow=openThin;endSize=12;strokeColor=#595959;exitX=0.750;exitY=0.000;exitDx=0;exitDy=0;entryX=0.500;entryY=1.000;entryDx=0;entryDy=0;" edge="1" parent="1" source="y2Wya7okIwwD4GfDalmy-12" target="y2Wya7okIwwD4GfDalmy-13">
          <mxGeometry width="50" height="50" relative="1" as="geometry">
            <Array as="points">
              <mxPoint x="685" y="810" />
              <mxPoint x="980" y="810" />
              <mxPoint x="980" y="756" />
              <mxPoint x="1300" y="756" />
            </Array>
          </mxGeometry>
        </mxCell>
        <mxCell id="y2Wya7okIwwD4GfDalmy-63" value="1" style="edgeLabel;resizable=0;html=1;align=left;verticalAlign=top;strokeColor=default;" connectable="0" vertex="1" parent="y2Wya7okIwwD4GfDalmy-62">
          <mxGeometry x="778" y="790" as="geometry" />
        </mxCell>
        <mxCell id="y2Wya7okIwwD4GfDalmy-64" value="1" style="edgeLabel;resizable=0;html=1;align=left;verticalAlign=top;strokeColor=default;" connectable="0" vertex="1" parent="y2Wya7okIwwD4GfDalmy-62">
          <mxGeometry x="1289" y="680" as="geometry" />
        </mxCell>
        <mxCell id="y2Wya7okIwwD4GfDalmy-65" value="tayAo" style="edgeLabel;resizable=0;html=1;align=left;verticalAlign=top;strokeColor=default;" connectable="0" vertex="1" parent="y2Wya7okIwwD4GfDalmy-62">
          <mxGeometry x="1300" y="680" as="geometry" />
        </mxCell>
      </root>
    </mxGraphModel>
  </diagram>
  <diagram id="IzUXYteg-beHQi7MCcIy" name="BanHang_Class_Diagram">
    <mxGraphModel grid="1" page="1" gridSize="10" guides="1" tooltips="1" connect="1" arrows="1" fold="1" pageScale="1" pageWidth="850" pageHeight="1100" math="0" shadow="0">
      <root>
        <mxCell id="0" />
        <mxCell id="1" parent="0" />
        <mxCell id="Dlah-OBdRQUG3CnUTtF7-1" value="&lt;p style=&quot;margin:0px;margin-top:4px;text-align:center;&quot;&gt;&lt;b&gt;DanhSachYeuThich&lt;/b&gt;&lt;/p&gt;&lt;hr size=&quot;1&quot;/&gt;&lt;p style=&quot;margin:0 0 0 4px;line-height:1.6;&quot;&gt;+ DanhSachYeuThich(Integer, KhachHang): &lt;br/&gt;+ DanhSachYeuThich(): &lt;/p&gt;&lt;hr size=&quot;1&quot;/&gt;&lt;p style=&quot;margin:0 0 0 4px;line-height:1.6;&quot;&gt;- id: Integer&lt;br/&gt;- khachHang: KhachHang&lt;/p&gt;&lt;hr size=&quot;1&quot;/&gt;&lt;p style=&quot;margin:0 0 0 4px;line-height:1.6;&quot;&gt; id: Integer&lt;br/&gt; khachHang: KhachHang&lt;/p&gt;" style="verticalAlign=top;align=left;overflow=fill;fontSize=14;fontFamily=Helvetica;html=1;rounded=0;shadow=0;comic=0;labelBackgroundColor=none;strokeWidth=1;" vertex="1" parent="1">
          <mxGeometry x="2190" y="970.0000000000001" width="308" height="210" as="geometry" />
        </mxCell>
        <mxCell id="Dlah-OBdRQUG3CnUTtF7-2" value="&lt;p style=&quot;margin:0px;margin-top:4px;text-align:center;&quot;&gt;&lt;b&gt;DanhSachYeuThichChiTiet&lt;/b&gt;&lt;/p&gt;&lt;hr size=&quot;1&quot;/&gt;&lt;p style=&quot;margin:0 0 0 4px;line-height:1.6;&quot;&gt;+ DanhSachYeuThichChiTiet(Integer, int, SanPhamChiTiet, GioHang): &lt;br/&gt;+ DanhSachYeuThichChiTiet(): &lt;/p&gt;&lt;hr size=&quot;1&quot;/&gt;&lt;p style=&quot;margin:0 0 0 4px;line-height:1.6;&quot;&gt;- id: Integer&lt;br/&gt;- soLuong: int&lt;br/&gt;- gioHang: GioHang&lt;br/&gt;- spct: SanPhamChiTiet&lt;/p&gt;&lt;hr size=&quot;1&quot;/&gt;&lt;p style=&quot;margin:0 0 0 4px;line-height:1.6;&quot;&gt; soLuong: int&lt;br/&gt; gioHang: GioHang&lt;br/&gt; id: Integer&lt;br/&gt; spct: SanPhamChiTiet&lt;/p&gt;" style="verticalAlign=top;align=left;overflow=fill;fontSize=14;fontFamily=Helvetica;html=1;rounded=0;shadow=0;comic=0;labelBackgroundColor=none;strokeWidth=1;" vertex="1" parent="1">
          <mxGeometry x="1369" y="1319" width="454" height="291" as="geometry" />
        </mxCell>
        <mxCell id="Dlah-OBdRQUG3CnUTtF7-3" value="&lt;p style=&quot;margin:0px;margin-top:4px;text-align:center;&quot;&gt;&lt;b&gt;DiaChi&lt;/b&gt;&lt;/p&gt;&lt;hr size=&quot;1&quot;/&gt;&lt;p style=&quot;margin:0 0 0 4px;line-height:1.6;&quot;&gt;+ DiaChi(): &lt;br/&gt;+ DiaChi(Integer, String, String, String, String, boolean, KhachHang): &lt;/p&gt;&lt;hr size=&quot;1&quot;/&gt;&lt;p style=&quot;margin:0 0 0 4px;line-height:1.6;&quot;&gt;- id: Integer&lt;br/&gt;- tinh: String&lt;br/&gt;- xa: String&lt;br/&gt;- duong: String&lt;br/&gt;- khachHang: KhachHang&lt;br/&gt;- macDinh: boolean&lt;br/&gt;- huyen: String&lt;/p&gt;&lt;hr size=&quot;1&quot;/&gt;&lt;p style=&quot;margin:0 0 0 4px;line-height:1.6;&quot;&gt;+ toString(): String&lt;/p&gt;&lt;hr size=&quot;1&quot;/&gt;&lt;p style=&quot;margin:0 0 0 4px;line-height:1.6;&quot;&gt; xa: String&lt;br/&gt; khachHang: KhachHang&lt;br/&gt; huyen: String&lt;br/&gt; macDinh: boolean&lt;br/&gt; duong: String&lt;br/&gt; tinh: String&lt;br/&gt; id: Integer&lt;/p&gt;" style="verticalAlign=top;align=left;overflow=fill;fontSize=14;fontFamily=Helvetica;html=1;rounded=0;shadow=0;comic=0;labelBackgroundColor=none;strokeWidth=1;" vertex="1" parent="1">
          <mxGeometry x="2182" y="289.92" width="450" height="470" as="geometry" />
        </mxCell>
        <mxCell id="Dlah-OBdRQUG3CnUTtF7-4" value="&lt;p style=&quot;margin:0px;margin-top:4px;text-align:center;&quot;&gt;&lt;b&gt;DotGiamGiaSanPham&lt;/b&gt;&lt;/p&gt;&lt;hr size=&quot;1&quot;&gt;&lt;p style=&quot;margin:0 0 0 4px;line-height:1.6;&quot;&gt;+ DotGiamGiaSanPham(Integer, LocalDateTime, LocalDateTime,&amp;nbsp;&lt;/p&gt;&lt;p style=&quot;margin:0 0 0 4px;line-height:1.6;&quot;&gt;SanPhamChiTiet, DotGiamGia): &lt;br&gt;+ DotGiamGiaSanPham(): &lt;/p&gt;&lt;hr size=&quot;1&quot;&gt;&lt;p style=&quot;margin:0 0 0 4px;line-height:1.6;&quot;&gt;- thoiGianKetThuc: LocalDateTime&lt;br&gt;- thoiGianBatDau: LocalDateTime&lt;br&gt;- sanPhamChiTiet: SanPhamChiTiet&lt;br&gt;- id: Integer&lt;br&gt;- dotGiamGia: DotGiamGia&lt;/p&gt;&lt;hr size=&quot;1&quot;&gt;&lt;p style=&quot;margin:0 0 0 4px;line-height:1.6;&quot;&gt;+ builder(): DotGiamGiaSanPhamBuilder&lt;/p&gt;&lt;hr size=&quot;1&quot;&gt;&lt;p style=&quot;margin:0 0 0 4px;line-height:1.6;&quot;&gt; thoiGianKetThuc: LocalDateTime&lt;br&gt; dotGiamGia: DotGiamGia&lt;br&gt; id: Integer&lt;br&gt; sanPhamChiTiet: SanPhamChiTiet&lt;br&gt; thoiGianBatDau: LocalDateTime&lt;/p&gt;" style="verticalAlign=top;align=left;overflow=fill;fontSize=14;fontFamily=Helvetica;html=1;rounded=0;shadow=0;comic=0;labelBackgroundColor=none;strokeWidth=1;" vertex="1" parent="1">
          <mxGeometry x="80" y="240" width="430" height="400.08" as="geometry" />
        </mxCell>
        <mxCell id="Dlah-OBdRQUG3CnUTtF7-5" value="&lt;p style=&quot;margin:0px;margin-top:4px;text-align:center;&quot;&gt;&lt;b&gt;GioHang&lt;/b&gt;&lt;/p&gt;&lt;hr size=&quot;1&quot;/&gt;&lt;p style=&quot;margin:0 0 0 4px;line-height:1.6;&quot;&gt;+ GioHang(Integer, KhachHang): &lt;br/&gt;+ GioHang(): &lt;/p&gt;&lt;hr size=&quot;1&quot;/&gt;&lt;p style=&quot;margin:0 0 0 4px;line-height:1.6;&quot;&gt;- id: Integer&lt;br/&gt;- khachHang: KhachHang&lt;/p&gt;&lt;hr size=&quot;1&quot;/&gt;&lt;p style=&quot;margin:0 0 0 4px;line-height:1.6;&quot;&gt; id: Integer&lt;br/&gt; khachHang: KhachHang&lt;/p&gt;" style="verticalAlign=top;align=left;overflow=fill;fontSize=14;fontFamily=Helvetica;html=1;rounded=0;shadow=0;comic=0;labelBackgroundColor=none;strokeWidth=1;" vertex="1" parent="1">
          <mxGeometry x="1740" y="970" width="241" height="210" as="geometry" />
        </mxCell>
        <mxCell id="Dlah-OBdRQUG3CnUTtF7-6" value="&lt;p style=&quot;margin:0px;margin-top:4px;text-align:center;&quot;&gt;&lt;b&gt;GioHangChiTiet&lt;/b&gt;&lt;/p&gt;&lt;hr size=&quot;1&quot;/&gt;&lt;p style=&quot;margin:0 0 0 4px;line-height:1.6;&quot;&gt;+ GioHangChiTiet(Integer, int, SanPhamChiTiet, GioHang): &lt;br/&gt;+ GioHangChiTiet(): &lt;/p&gt;&lt;hr size=&quot;1&quot;/&gt;&lt;p style=&quot;margin:0 0 0 4px;line-height:1.6;&quot;&gt;- gioHang: GioHang&lt;br/&gt;- id: Integer&lt;br/&gt;- soLuong: int&lt;br/&gt;- spct: SanPhamChiTiet&lt;/p&gt;&lt;hr size=&quot;1&quot;/&gt;&lt;p style=&quot;margin:0 0 0 4px;line-height:1.6;&quot;&gt; soLuong: int&lt;br/&gt; gioHang: GioHang&lt;br/&gt; id: Integer&lt;br/&gt; spct: SanPhamChiTiet&lt;/p&gt;" style="verticalAlign=top;align=left;overflow=fill;fontSize=14;fontFamily=Helvetica;html=1;rounded=0;shadow=0;comic=0;labelBackgroundColor=none;strokeWidth=1;" vertex="1" parent="1">
          <mxGeometry x="1704" y="1673" width="402" height="297" as="geometry" />
        </mxCell>
        <mxCell id="Dlah-OBdRQUG3CnUTtF7-7" value="&lt;p style=&quot;margin:0px;margin-top:4px;text-align:center;&quot;&gt;&lt;b&gt;HinhThucThanhToan&lt;/b&gt;&lt;/p&gt;&lt;hr size=&quot;1&quot;/&gt;&lt;p style=&quot;margin:0 0 0 4px;line-height:1.6;&quot;&gt;+ HinhThucThanhToan(Integer, LoaiHinhThuc, List&amp;lt;ThanhToan&amp;gt;): &lt;br/&gt;+ HinhThucThanhToan(): &lt;/p&gt;&lt;hr size=&quot;1&quot;/&gt;&lt;p style=&quot;margin:0 0 0 4px;line-height:1.6;&quot;&gt;- hinhThuc: LoaiHinhThuc&lt;br/&gt;- id: Integer&lt;br/&gt;- thanhToans: List&amp;lt;ThanhToan&amp;gt;&lt;/p&gt;&lt;hr size=&quot;1&quot;/&gt;&lt;p style=&quot;margin:0 0 0 4px;line-height:1.6;&quot;&gt;+ toString(): String&lt;br/&gt;+ builder(): HinhThucThanhToanBuilder&lt;/p&gt;&lt;hr size=&quot;1&quot;/&gt;&lt;p style=&quot;margin:0 0 0 4px;line-height:1.6;&quot;&gt; id: Integer&lt;br/&gt; thanhToans: List&amp;lt;ThanhToan&amp;gt;&lt;br/&gt; hinhThuc: LoaiHinhThuc&lt;/p&gt;" style="verticalAlign=top;align=left;overflow=fill;fontSize=14;fontFamily=Helvetica;html=1;rounded=0;shadow=0;comic=0;labelBackgroundColor=none;strokeWidth=1;" vertex="1" parent="1">
          <mxGeometry x="80" y="680" width="430" height="285" as="geometry" />
        </mxCell>
        <mxCell id="Dlah-OBdRQUG3CnUTtF7-8" value="&lt;p style=&quot;margin:0px;margin-top:4px;text-align:center;&quot;&gt;&lt;b&gt;HoaDon&lt;/b&gt;&lt;/p&gt;&lt;hr size=&quot;1&quot;/&gt;&lt;p style=&quot;margin:0 0 0 4px;line-height:1.6;&quot;&gt;+ HoaDon(Integer, String, String, String, String, String, BigDecimal, BigDecimal, BigDecimal, LoaiHoaDon, TrangThaiHoaDon, String, NhanVien, KhachHang, PhieuGiamGia, List&amp;lt;HoaDonChiTiet&amp;gt;, List&amp;lt;LichSuHoaDon&amp;gt;, List&amp;lt;ThanhToan&amp;gt;): &lt;br/&gt;+ HoaDon(): &lt;/p&gt;&lt;hr size=&quot;1&quot;/&gt;&lt;p style=&quot;margin:0 0 0 4px;line-height:1.6;&quot;&gt;- loaiHoaDon: LoaiHoaDon&lt;br/&gt;- nhanVien: NhanVien&lt;br/&gt;- khachHang: KhachHang&lt;br/&gt;- tenNguoiNhan: String&lt;br/&gt;- trangThai: TrangThaiHoaDon&lt;br/&gt;- id: Integer&lt;br/&gt;- diaChiNguoiNhan: String&lt;br/&gt;- phieuGiamGia: PhieuGiamGia&lt;br/&gt;- hoaDonChiTiets: List&amp;lt;HoaDonChiTiet&amp;gt;&lt;br/&gt;- emailNguoiNhan: String&lt;br/&gt;- ma: String&lt;br/&gt;- tienGiam: BigDecimal&lt;br/&gt;- ghiChu: String&lt;br/&gt;- sdtNguoiNhan: String&lt;br/&gt;- phiVanChuyen: BigDecimal&lt;br/&gt;- lichSuHoaDons: List&amp;lt;LichSuHoaDon&amp;gt;&lt;br/&gt;- tongTien: BigDecimal&lt;br/&gt;- thanhToans: List&amp;lt;ThanhToan&amp;gt;&lt;/p&gt;&lt;hr size=&quot;1&quot;/&gt;&lt;p style=&quot;margin:0 0 0 4px;line-height:1.6;&quot;&gt;+ builder(): HoaDonBuilder&lt;br/&gt;+ toString(): String&lt;/p&gt;&lt;hr size=&quot;1&quot;/&gt;&lt;p style=&quot;margin:0 0 0 4px;line-height:1.6;&quot;&gt; nhanVien: NhanVien&lt;br/&gt; tienGiam: BigDecimal&lt;br/&gt; phiVanChuyen: BigDecimal&lt;br/&gt; khachHang: KhachHang&lt;br/&gt; ma: String&lt;br/&gt; trangThai: TrangThaiHoaDon&lt;br/&gt; thanhToans: List&amp;lt;ThanhToan&amp;gt;&lt;br/&gt; id: Integer&lt;br/&gt; ghiChu: String&lt;br/&gt; tenNguoiNhan: String&lt;br/&gt; diaChiNguoiNhan: String&lt;br/&gt; hoaDonChiTiets: List&amp;lt;HoaDonChiTiet&amp;gt;&lt;br/&gt; emailNguoiNhan: String&lt;br/&gt; tongTien: BigDecimal&lt;br/&gt; phieuGiamGia: PhieuGiamGia&lt;br/&gt; lichSuHoaDons: List&amp;lt;LichSuHoaDon&amp;gt;&lt;br/&gt; sdtNguoiNhan: String&lt;br/&gt; loaiHoaDon: LoaiHoaDon&lt;/p&gt;" style="verticalAlign=top;align=left;overflow=fill;fontSize=14;fontFamily=Helvetica;html=1;rounded=0;shadow=0;comic=0;labelBackgroundColor=none;strokeWidth=1;fillColor=#dae8fc;strokeColor=#6c8ebf;" vertex="1" parent="1">
          <mxGeometry x="590" y="1695" width="414" height="985" as="geometry" />
        </mxCell>
        <mxCell id="Dlah-OBdRQUG3CnUTtF7-9" value="&lt;p style=&quot;margin:0px;margin-top:4px;text-align:center;&quot;&gt;&lt;b&gt;HoaDonChiTiet&lt;/b&gt;&lt;/p&gt;&lt;hr size=&quot;1&quot;/&gt;&lt;p style=&quot;margin:0 0 0 4px;line-height:1.6;&quot;&gt;+ HoaDonChiTiet(Integer, int, BigDecimal, BigDecimal, SanPhamChiTiet, HoaDon): &lt;br/&gt;+ HoaDonChiTiet(): &lt;br/&gt;# HoaDonChiTiet(HoaDonChiTietBuilder&amp;lt;?, ?&amp;gt;): &lt;/p&gt;&lt;hr size=&quot;1&quot;/&gt;&lt;p style=&quot;margin:0 0 0 4px;line-height:1.6;&quot;&gt;- giaBan: BigDecimal&lt;br/&gt;- sanPhamChiTiet: SanPhamChiTiet&lt;br/&gt;- giaNhap: BigDecimal&lt;br/&gt;- hoaDon: HoaDon&lt;br/&gt;- id: Integer&lt;br/&gt;- soLuong: int&lt;/p&gt;&lt;hr size=&quot;1&quot;/&gt;&lt;p style=&quot;margin:0 0 0 4px;line-height:1.6;&quot;&gt;+ builder(): HoaDonChiTietBuilder&amp;lt;?, ?&amp;gt;&lt;br/&gt;+ toString(): String&lt;/p&gt;&lt;hr size=&quot;1&quot;/&gt;&lt;p style=&quot;margin:0 0 0 4px;line-height:1.6;&quot;&gt; soLuong: int&lt;br/&gt; giaNhap: BigDecimal&lt;br/&gt; id: Integer&lt;br/&gt; giaBan: BigDecimal&lt;br/&gt; sanPhamChiTiet: SanPhamChiTiet&lt;br/&gt; hoaDon: HoaDon&lt;/p&gt;" style="verticalAlign=top;align=left;overflow=fill;fontSize=14;fontFamily=Helvetica;html=1;rounded=0;shadow=0;comic=0;labelBackgroundColor=none;strokeWidth=1;" vertex="1" parent="1">
          <mxGeometry x="868" y="1145" width="441" height="465" as="geometry" />
        </mxCell>
        <mxCell id="Dlah-OBdRQUG3CnUTtF7-10" value="&lt;p style=&quot;margin:0px;margin-top:4px;text-align:center;&quot;&gt;&lt;b&gt;KhachHang&lt;/b&gt;&lt;/p&gt;&lt;hr size=&quot;1&quot;/&gt;&lt;p style=&quot;margin:0 0 0 4px;line-height:1.6;&quot;&gt;+ KhachHang(Integer, String, LocalDate, String, String, boolean, int, Account, KhachHangImage, List&amp;lt;DiaChi&amp;gt;): &lt;br/&gt;+ KhachHang(): &lt;/p&gt;&lt;hr size=&quot;1&quot;/&gt;&lt;p style=&quot;margin:0 0 0 4px;line-height:1.6;&quot;&gt;- diaChis: List&amp;lt;DiaChi&amp;gt;&lt;br/&gt;- hoTen: String&lt;br/&gt;- image: KhachHangImage&lt;br/&gt;- ngaySinh: LocalDate&lt;br/&gt;- account: Account&lt;br/&gt;- email: String&lt;br/&gt;- trangThai: int&lt;br/&gt;- gioiTinh: boolean&lt;br/&gt;- sdt: String&lt;br/&gt;- id: Integer&lt;/p&gt;&lt;hr size=&quot;1&quot;/&gt;&lt;p style=&quot;margin:0 0 0 4px;line-height:1.6;&quot;&gt;+ toString(): String&lt;/p&gt;&lt;hr size=&quot;1&quot;/&gt;&lt;p style=&quot;margin:0 0 0 4px;line-height:1.6;&quot;&gt; gioiTinh: boolean&lt;br/&gt; email: String&lt;br/&gt; ngaySinh: LocalDate&lt;br/&gt; account: Account&lt;br/&gt; image: KhachHangImage&lt;br/&gt; diaChis: List&amp;lt;DiaChi&amp;gt;&lt;br/&gt; id: Integer&lt;br/&gt; hoTen: String&lt;br/&gt; sdt: String&lt;br/&gt; trangThai: int&lt;/p&gt;" style="verticalAlign=top;align=left;overflow=fill;fontSize=14;fontFamily=Helvetica;html=1;rounded=0;shadow=0;comic=0;labelBackgroundColor=none;strokeWidth=1;" vertex="1" parent="1">
          <mxGeometry x="1619" y="302.92" width="419" height="597" as="geometry" />
        </mxCell>
        <mxCell id="Dlah-OBdRQUG3CnUTtF7-11" value="&lt;p style=&quot;margin:0px;margin-top:4px;text-align:center;&quot;&gt;&lt;b&gt;LichSuHoaDon&lt;/b&gt;&lt;/p&gt;&lt;hr size=&quot;1&quot;/&gt;&lt;p style=&quot;margin:0 0 0 4px;line-height:1.6;&quot;&gt;+ LichSuHoaDon(Integer, String, String, TrangThaiHoaDon, HoaDon): &lt;br/&gt;+ LichSuHoaDon(): &lt;/p&gt;&lt;hr size=&quot;1&quot;/&gt;&lt;p style=&quot;margin:0 0 0 4px;line-height:1.6;&quot;&gt;- tieuDe: String&lt;br/&gt;- id: Integer&lt;br/&gt;- hoaDon: HoaDon&lt;br/&gt;- moTa: String&lt;br/&gt;- trangThai: TrangThaiHoaDon&lt;/p&gt;&lt;hr size=&quot;1&quot;/&gt;&lt;p style=&quot;margin:0 0 0 4px;line-height:1.6;&quot;&gt;+ toString(): String&lt;br/&gt;+ builder(): LichSuHoaDonBuilder&lt;/p&gt;&lt;hr size=&quot;1&quot;/&gt;&lt;p style=&quot;margin:0 0 0 4px;line-height:1.6;&quot;&gt; trangThai: TrangThaiHoaDon&lt;br/&gt; id: Integer&lt;br/&gt; moTa: String&lt;br/&gt; tieuDe: String&lt;br/&gt; hoaDon: HoaDon&lt;/p&gt;" style="verticalAlign=top;align=left;overflow=fill;fontSize=14;fontFamily=Helvetica;html=1;rounded=0;shadow=0;comic=0;labelBackgroundColor=none;strokeWidth=1;" vertex="1" parent="1">
          <mxGeometry x="80" y="2050" width="445" height="400" as="geometry" />
        </mxCell>
        <mxCell id="Dlah-OBdRQUG3CnUTtF7-12" value="&lt;p style=&quot;margin:0px;margin-top:4px;text-align:center;&quot;&gt;&lt;b&gt;NhanVien&lt;/b&gt;&lt;/p&gt;&lt;hr size=&quot;1&quot;/&gt;&lt;p style=&quot;margin:0 0 0 4px;line-height:1.6;&quot;&gt;+ NhanVien(Integer, String, String, LocalDate, String, boolean, String, String, Account, KhachHangImage): &lt;br/&gt;+ NhanVien(): &lt;/p&gt;&lt;hr size=&quot;1&quot;/&gt;&lt;p style=&quot;margin:0 0 0 4px;line-height:1.6;&quot;&gt;- sdt: String&lt;br/&gt;- email: String&lt;br/&gt;- image: KhachHangImage&lt;br/&gt;- id: Integer&lt;br/&gt;- hoTen: String&lt;br/&gt;- account: Account&lt;br/&gt;- gioiTinh: boolean&lt;br/&gt;- cccd: String&lt;br/&gt;- diaChi: String&lt;br/&gt;- ngaySinh: LocalDate&lt;/p&gt;&lt;hr size=&quot;1&quot;/&gt;&lt;p style=&quot;margin:0 0 0 4px;line-height:1.6;&quot;&gt; gioiTinh: boolean&lt;br/&gt; diaChi: String&lt;br/&gt; email: String&lt;br/&gt; ngaySinh: LocalDate&lt;br/&gt; account: Account&lt;br/&gt; image: KhachHangImage&lt;br/&gt; cccd: String&lt;br/&gt; id: Integer&lt;br/&gt; hoTen: String&lt;br/&gt; sdt: String&lt;/p&gt;" style="verticalAlign=top;align=left;overflow=fill;fontSize=14;fontFamily=Helvetica;html=1;rounded=0;shadow=0;comic=0;labelBackgroundColor=none;strokeWidth=1;" vertex="1" parent="1">
          <mxGeometry x="1226" y="1695" width="413" height="571" as="geometry" />
        </mxCell>
        <mxCell id="Dlah-OBdRQUG3CnUTtF7-13" value="&lt;p style=&quot;margin:0px;margin-top:4px;text-align:center;&quot;&gt;&lt;b&gt;PhieuGiamGia&lt;/b&gt;&lt;/p&gt;&lt;hr size=&quot;1&quot;&gt;&lt;p style=&quot;margin:0 0 0 4px;line-height:1.6;&quot;&gt;+ PhieuGiamGia(Integer, String, String, Integer, Integer, BigDecimal,&amp;nbsp;&lt;/p&gt;&lt;p style=&quot;margin:0 0 0 4px;line-height:1.6;&quot;&gt;BigDecimal, BigDecimal, int, LocalDateTime, LocalDateTime, String): &lt;br&gt;+ PhieuGiamGia(): &lt;/p&gt;&lt;hr size=&quot;1&quot;&gt;&lt;p style=&quot;margin:0 0 0 4px;line-height:1.6;&quot;&gt;- maPhieuGiamGia: String&lt;br&gt;- tenPhieuGiamGia: String&lt;br&gt;- kieu: Integer&lt;br&gt;- thoiGianKetThuc: LocalDateTime&lt;br&gt;- giaTri: BigDecimal&lt;br&gt;- loai: Integer&lt;br&gt;- soLuong: int&lt;br&gt;- id: Integer&lt;br&gt;- dieuKienGiam: BigDecimal&lt;br&gt;- thoiGianBatDau: LocalDateTime&lt;br&gt;- giaTriMax: BigDecimal&lt;br&gt;- trangThai: String&lt;/p&gt;&lt;hr size=&quot;1&quot;&gt;&lt;p style=&quot;margin:0 0 0 4px;line-height:1.6;&quot;&gt;+ toString(): String&lt;/p&gt;&lt;hr size=&quot;1&quot;&gt;&lt;p style=&quot;margin:0 0 0 4px;line-height:1.6;&quot;&gt; tenPhieuGiamGia: String&lt;br&gt; loai: Integer&lt;br&gt; thoiGianKetThuc: LocalDateTime&lt;br&gt; soLuong: int&lt;br&gt; kieu: Integer&lt;br&gt; dieuKienGiam: BigDecimal&lt;br&gt; giaTriMax: BigDecimal&lt;br&gt; trangThai: String&lt;br&gt; giaTri: BigDecimal&lt;br&gt; maPhieuGiamGia: String&lt;br&gt; id: Integer&lt;br&gt; thoiGianBatDau: LocalDateTime&lt;/p&gt;" style="verticalAlign=top;align=left;overflow=fill;fontSize=14;fontFamily=Helvetica;html=1;rounded=0;shadow=0;comic=0;labelBackgroundColor=none;strokeWidth=1;" vertex="1" parent="1">
          <mxGeometry x="2166" y="1376" width="464" height="714" as="geometry" />
        </mxCell>
        <mxCell id="Dlah-OBdRQUG3CnUTtF7-14" value="&lt;p style=&quot;margin:0px;margin-top:4px;text-align:center;&quot;&gt;&lt;b&gt;PhieuGiamGiaKhachHang&lt;/b&gt;&lt;/p&gt;&lt;hr size=&quot;1&quot;/&gt;&lt;p style=&quot;margin:0 0 0 4px;line-height:1.6;&quot;&gt;+ PhieuGiamGiaKhachHang(Integer, String, KhachHang, PhieuGiamGia): &lt;br/&gt;+ PhieuGiamGiaKhachHang(): &lt;/p&gt;&lt;hr size=&quot;1&quot;/&gt;&lt;p style=&quot;margin:0 0 0 4px;line-height:1.6;&quot;&gt;- phieuGiamGia: PhieuGiamGia&lt;br/&gt;- khachHang: KhachHang&lt;br/&gt;- id: Integer&lt;br/&gt;- moTa: String&lt;/p&gt;&lt;hr size=&quot;1&quot;/&gt;&lt;p style=&quot;margin:0 0 0 4px;line-height:1.6;&quot;&gt; phieuGiamGia: PhieuGiamGia&lt;br/&gt; id: Integer&lt;br/&gt; moTa: String&lt;br/&gt; khachHang: KhachHang&lt;/p&gt;" style="verticalAlign=top;align=left;overflow=fill;fontSize=14;fontFamily=Helvetica;html=1;rounded=0;shadow=0;comic=0;labelBackgroundColor=none;strokeWidth=1;" vertex="1" parent="1">
          <mxGeometry x="2166" y="2130" width="461" height="290" as="geometry" />
        </mxCell>
        <mxCell id="Dlah-OBdRQUG3CnUTtF7-15" value="&lt;p style=&quot;margin:0px;margin-top:4px;text-align:center;&quot;&gt;&lt;b&gt;SanPham&lt;/b&gt;&lt;/p&gt;&lt;hr size=&quot;1&quot;/&gt;&lt;p style=&quot;margin:0 0 0 4px;line-height:1.6;&quot;&gt;+ SanPham(Integer, String, String, String, boolean, List&amp;lt;SanPhamChiTiet&amp;gt;): &lt;br/&gt;+ SanPham(): &lt;/p&gt;&lt;hr size=&quot;1&quot;/&gt;&lt;p style=&quot;margin:0 0 0 4px;line-height:1.6;&quot;&gt;- sanPhamChiTiets: List&amp;lt;SanPhamChiTiet&amp;gt;&lt;br/&gt;- ten: String&lt;br/&gt;- trangThai: boolean&lt;br/&gt;- id: Integer&lt;br/&gt;- ma: String&lt;br/&gt;- moTa: String&lt;/p&gt;&lt;hr size=&quot;1&quot;/&gt;&lt;p style=&quot;margin:0 0 0 4px;line-height:1.6;&quot;&gt; trangThai: boolean&lt;br/&gt; sanPhamChiTiets: List&amp;lt;SanPhamChiTiet&amp;gt;&lt;br/&gt; id: Integer&lt;br/&gt; ten: String&lt;br/&gt; moTa: String&lt;br/&gt; ma: String&lt;/p&gt;" style="verticalAlign=top;align=left;overflow=fill;fontSize=14;fontFamily=Helvetica;html=1;rounded=0;shadow=0;comic=0;labelBackgroundColor=none;strokeWidth=1;" vertex="1" parent="1">
          <mxGeometry x="1140" y="240" width="433" height="379" as="geometry" />
        </mxCell>
        <mxCell id="Dlah-OBdRQUG3CnUTtF7-16" value="&lt;p style=&quot;margin:0px;margin-top:4px;text-align:center;&quot;&gt;&lt;b&gt;SanPhamChiTiet&lt;/b&gt;&lt;/p&gt;&lt;hr size=&quot;1&quot;/&gt;&lt;p style=&quot;margin:0 0 0 4px;line-height:1.6;&quot;&gt;+ SanPhamChiTiet(): &lt;br/&gt;+ SanPhamChiTiet(Integer, BigDecimal, BigDecimal, int, boolean, SanPham, MauSac, KichCo, KieuDang, KieuThietKe, TayAo, CoAo, ChatLieu, List&amp;lt;HinhAnh&amp;gt;): &lt;/p&gt;&lt;hr size=&quot;1&quot;/&gt;&lt;p style=&quot;margin:0 0 0 4px;line-height:1.6;&quot;&gt;- thietKe: KieuThietKe&lt;br/&gt;- coAo: CoAo&lt;br/&gt;- giaBan: BigDecimal&lt;br/&gt;- sanPham: SanPham&lt;br/&gt;- id: Integer&lt;br/&gt;- soLuongTon: int&lt;br/&gt;- trangThai: boolean&lt;br/&gt;- hinhAnhs: List&amp;lt;HinhAnh&amp;gt;&lt;br/&gt;- kichCo: KichCo&lt;br/&gt;- tayAo: TayAo&lt;br/&gt;- mauSac: MauSac&lt;br/&gt;- kieuDang: KieuDang&lt;br/&gt;- chatLieu: ChatLieu&lt;br/&gt;- giaNhap: BigDecimal&lt;/p&gt;&lt;hr size=&quot;1&quot;/&gt;&lt;p style=&quot;margin:0 0 0 4px;line-height:1.6;&quot;&gt;+ builder(): SanPhamChiTietBuilder&lt;br/&gt;+ toString(): String&lt;/p&gt;&lt;hr size=&quot;1&quot;/&gt;&lt;p style=&quot;margin:0 0 0 4px;line-height:1.6;&quot;&gt; giaNhap: BigDecimal&lt;br/&gt; hinhAnh: HinhAnh&lt;br/&gt; chatLieu: ChatLieu&lt;br/&gt; giaBan: BigDecimal&lt;br/&gt; coAo: CoAo&lt;br/&gt; id: Integer&lt;br/&gt; tayAo: TayAo&lt;br/&gt; kieuDang: KieuDang&lt;br/&gt; sanPham: SanPham&lt;br/&gt; hinhAnhs: List&amp;lt;HinhAnh&amp;gt;&lt;br/&gt; thietKe: KieuThietKe&lt;br/&gt; mauSac: MauSac&lt;br/&gt; soLuongTon: int&lt;br/&gt; trangThai: boolean&lt;br/&gt; kichCo: KichCo&lt;/p&gt;" style="verticalAlign=top;align=left;overflow=fill;fontSize=14;fontFamily=Helvetica;html=1;rounded=0;shadow=0;comic=0;labelBackgroundColor=none;strokeWidth=1;fillColor=#dae8fc;strokeColor=#6c8ebf;" vertex="1" parent="1">
          <mxGeometry x="658" y="233" width="422" height="837" as="geometry" />
        </mxCell>
        <mxCell id="Dlah-OBdRQUG3CnUTtF7-17" value="&lt;p style=&quot;margin:0px;margin-top:4px;text-align:center;&quot;&gt;&lt;b&gt;ThanhToan&lt;/b&gt;&lt;/p&gt;&lt;hr size=&quot;1&quot;/&gt;&lt;p style=&quot;margin:0 0 0 4px;line-height:1.6;&quot;&gt;+ ThanhToan(Integer, String, String, BigDecimal, boolean, HoaDon, HinhThucThanhToan): &lt;br/&gt;+ ThanhToan(): &lt;/p&gt;&lt;hr size=&quot;1&quot;/&gt;&lt;p style=&quot;margin:0 0 0 4px;line-height:1.6;&quot;&gt;- soTien: BigDecimal&lt;br/&gt;- id: Integer&lt;br/&gt;- hoaDon: HoaDon&lt;br/&gt;- moTa: String&lt;br/&gt;- hinhThucThanhToan: HinhThucThanhToan&lt;br/&gt;- maGiaoDich: String&lt;br/&gt;- trangThai: boolean&lt;/p&gt;&lt;hr size=&quot;1&quot;/&gt;&lt;p style=&quot;margin:0 0 0 4px;line-height:1.6;&quot;&gt;+ builder(): ThanhToanBuilder&lt;br/&gt;+ toString(): String&lt;/p&gt;&lt;hr size=&quot;1&quot;/&gt;&lt;p style=&quot;margin:0 0 0 4px;line-height:1.6;&quot;&gt; soTien: BigDecimal&lt;br/&gt; hinhThucThanhToan: HinhThucThanhToan&lt;br/&gt; maGiaoDich: String&lt;br/&gt; trangThai: boolean&lt;br/&gt; id: Integer&lt;br/&gt; moTa: String&lt;br/&gt; hoaDon: HoaDon&lt;/p&gt;" style="verticalAlign=top;align=left;overflow=fill;fontSize=14;fontFamily=Helvetica;html=1;rounded=0;shadow=0;comic=0;labelBackgroundColor=none;strokeWidth=1;" vertex="1" parent="1">
          <mxGeometry x="285" y="1130" width="441" height="490" as="geometry" />
        </mxCell>
        <mxCell id="Dlah-OBdRQUG3CnUTtF7-18" value="" style="html=1;rounded=1;edgeStyle=orthogonalEdgeStyle;dashed=0;startArrow=diamondThinstartSize=12;endArrow=openThin;endSize=12;strokeColor=#595959;" edge="1" parent="1" source="Dlah-OBdRQUG3CnUTtF7-1" target="Dlah-OBdRQUG3CnUTtF7-10">
          <mxGeometry width="50" height="50" relative="1" as="geometry">
            <Array as="points">
              <mxPoint x="2336" y="890" />
              <mxPoint x="2136" y="890" />
              <mxPoint x="2136" y="600" />
            </Array>
          </mxGeometry>
        </mxCell>
        <mxCell id="Dlah-OBdRQUG3CnUTtF7-19" value="1" style="edgeLabel;resizable=0;html=1;align=left;verticalAlign=top;strokeColor=default;" connectable="0" vertex="1" parent="Dlah-OBdRQUG3CnUTtF7-18">
          <mxGeometry x="2060" y="596.9200000000001" as="geometry" />
        </mxCell>
        <mxCell id="Dlah-OBdRQUG3CnUTtF7-20" value="1" style="edgeLabel;resizable=0;html=1;align=left;verticalAlign=top;strokeColor=default;" connectable="0" vertex="1" parent="Dlah-OBdRQUG3CnUTtF7-18">
          <mxGeometry x="2310" y="800.0000000000001" as="geometry">
            <mxPoint x="36" y="137" as="offset" />
          </mxGeometry>
        </mxCell>
        <mxCell id="Dlah-OBdRQUG3CnUTtF7-21" value="khachHang" style="edgeLabel;resizable=0;html=1;align=left;verticalAlign=top;strokeColor=default;" connectable="0" vertex="1" parent="Dlah-OBdRQUG3CnUTtF7-18">
          <mxGeometry x="1880" y="260" as="geometry" />
        </mxCell>
        <mxCell id="Dlah-OBdRQUG3CnUTtF7-22" value="" style="html=1;rounded=1;edgeStyle=orthogonalEdgeStyle;dashed=0;startArrow=diamondThinstartSize=12;endArrow=openThin;endSize=12;strokeColor=#595959;exitX=0.500;exitY=0.000;exitDx=0;exitDy=0;" edge="1" parent="1" source="Dlah-OBdRQUG3CnUTtF7-2" target="Dlah-OBdRQUG3CnUTtF7-5">
          <mxGeometry width="50" height="50" relative="1" as="geometry">
            <Array as="points">
              <mxPoint x="1596" y="1281" />
              <mxPoint x="1852" y="1281" />
            </Array>
          </mxGeometry>
        </mxCell>
        <mxCell id="Dlah-OBdRQUG3CnUTtF7-23" value="1" style="edgeLabel;resizable=0;html=1;align=left;verticalAlign=top;strokeColor=default;" connectable="0" vertex="1" parent="Dlah-OBdRQUG3CnUTtF7-22">
          <mxGeometry x="1841" y="1200" as="geometry" />
        </mxCell>
        <mxCell id="Dlah-OBdRQUG3CnUTtF7-24" value="1" style="edgeLabel;resizable=0;html=1;align=left;verticalAlign=top;strokeColor=default;" connectable="0" vertex="1" parent="Dlah-OBdRQUG3CnUTtF7-22">
          <mxGeometry x="1693" y="1261" as="geometry" />
        </mxCell>
        <mxCell id="Dlah-OBdRQUG3CnUTtF7-25" value="gioHang" style="edgeLabel;resizable=0;html=1;align=left;verticalAlign=top;strokeColor=default;" connectable="0" vertex="1" parent="Dlah-OBdRQUG3CnUTtF7-22">
          <mxGeometry x="1860" y="1200" as="geometry" />
        </mxCell>
        <mxCell id="Dlah-OBdRQUG3CnUTtF7-26" value="" style="html=1;rounded=1;edgeStyle=orthogonalEdgeStyle;dashed=0;startArrow=diamondThinstartSize=12;endArrow=openThin;endSize=12;strokeColor=#595959;exitX=0.000;exitY=0.500;exitDx=0;exitDy=0;" edge="1" parent="1" source="Dlah-OBdRQUG3CnUTtF7-2" target="Dlah-OBdRQUG3CnUTtF7-16">
          <mxGeometry width="50" height="50" relative="1" as="geometry">
            <Array as="points">
              <mxPoint x="1369" y="1461" />
              <mxPoint x="1339" y="1461" />
              <mxPoint x="1339" y="820" />
            </Array>
          </mxGeometry>
        </mxCell>
        <mxCell id="Dlah-OBdRQUG3CnUTtF7-28" value="1" style="edgeLabel;resizable=0;html=1;align=left;verticalAlign=top;strokeColor=default;" connectable="0" vertex="1" parent="Dlah-OBdRQUG3CnUTtF7-26">
          <mxGeometry x="1351" y="1456" as="geometry" />
        </mxCell>
        <mxCell id="Dlah-OBdRQUG3CnUTtF7-29" value="spct" style="edgeLabel;resizable=0;html=1;align=left;verticalAlign=top;strokeColor=default;" connectable="0" vertex="1" parent="Dlah-OBdRQUG3CnUTtF7-26">
          <mxGeometry x="1123" y="770" as="geometry" />
        </mxCell>
        <mxCell id="Dlah-OBdRQUG3CnUTtF7-34" value="" style="html=1;rounded=1;edgeStyle=orthogonalEdgeStyle;dashed=0;startArrow=diamondThinstartSize=12;endArrow=openThin;endSize=12;strokeColor=#595959;entryX=0;entryY=0.25;entryDx=0;entryDy=0;" edge="1" parent="1" target="Dlah-OBdRQUG3CnUTtF7-16">
          <mxGeometry width="50" height="50" relative="1" as="geometry">
            <Array as="points">
              <mxPoint x="510" y="381" />
              <mxPoint x="510" y="379" />
              <mxPoint x="560" y="379" />
              <mxPoint x="560" y="442" />
            </Array>
            <mxPoint x="510" y="380" as="sourcePoint" />
          </mxGeometry>
        </mxCell>
        <mxCell id="Dlah-OBdRQUG3CnUTtF7-35" value="1" style="edgeLabel;resizable=0;html=1;align=left;verticalAlign=top;strokeColor=default;" connectable="0" vertex="1" parent="Dlah-OBdRQUG3CnUTtF7-34">
          <mxGeometry x="1120" y="820" as="geometry" />
        </mxCell>
        <mxCell id="Dlah-OBdRQUG3CnUTtF7-38" value="" style="html=1;rounded=1;edgeStyle=orthogonalEdgeStyle;dashed=0;startArrow=diamondThinstartSize=12;endArrow=openThin;endSize=12;strokeColor=#595959;exitX=1.000;exitY=0.500;exitDx=0;exitDy=0;" edge="1" parent="1" source="Dlah-OBdRQUG3CnUTtF7-5">
          <mxGeometry width="50" height="50" relative="1" as="geometry">
            <Array as="points">
              <mxPoint x="2136" y="1064" />
              <mxPoint x="2136" y="600" />
            </Array>
            <mxPoint x="2038" y="600" as="targetPoint" />
          </mxGeometry>
        </mxCell>
        <mxCell id="Dlah-OBdRQUG3CnUTtF7-42" value="" style="html=1;rounded=1;edgeStyle=orthogonalEdgeStyle;dashed=0;startArrow=diamondThinstartSize=12;endArrow=openThin;endSize=12;strokeColor=#595959;exitX=0.537;exitY=0.000;exitDx=0;exitDy=0;" edge="1" parent="1" source="Dlah-OBdRQUG3CnUTtF7-6" target="Dlah-OBdRQUG3CnUTtF7-5">
          <mxGeometry width="50" height="50" relative="1" as="geometry">
            <Array as="points">
              <mxPoint x="1920" y="1281" />
              <mxPoint x="1852" y="1281" />
            </Array>
          </mxGeometry>
        </mxCell>
        <mxCell id="Dlah-OBdRQUG3CnUTtF7-43" value="1" style="edgeLabel;resizable=0;html=1;align=left;verticalAlign=top;strokeColor=default;" connectable="0" vertex="1" parent="Dlah-OBdRQUG3CnUTtF7-42">
          <mxGeometry x="1841" y="1200" as="geometry" />
        </mxCell>
        <mxCell id="Dlah-OBdRQUG3CnUTtF7-44" value="1" style="edgeLabel;resizable=0;html=1;align=left;verticalAlign=top;strokeColor=default;" connectable="0" vertex="1" parent="Dlah-OBdRQUG3CnUTtF7-42">
          <mxGeometry x="1821" y="1271" as="geometry" />
        </mxCell>
        <mxCell id="Dlah-OBdRQUG3CnUTtF7-45" value="gioHang" style="edgeLabel;resizable=0;html=1;align=left;verticalAlign=top;strokeColor=default;" connectable="0" vertex="1" parent="Dlah-OBdRQUG3CnUTtF7-42">
          <mxGeometry x="1860" y="1200" as="geometry" />
        </mxCell>
        <mxCell id="Dlah-OBdRQUG3CnUTtF7-46" value="" style="html=1;rounded=1;edgeStyle=orthogonalEdgeStyle;dashed=0;startArrow=diamondThinstartSize=12;endArrow=openThin;endSize=12;strokeColor=#595959;exitX=0.500;exitY=0.000;exitDx=0;exitDy=0;" edge="1" parent="1" source="Dlah-OBdRQUG3CnUTtF7-6" target="Dlah-OBdRQUG3CnUTtF7-16">
          <mxGeometry width="50" height="50" relative="1" as="geometry">
            <Array as="points">
              <mxPoint x="1905" y="1640" />
              <mxPoint x="1339" y="1640" />
              <mxPoint x="1339" y="820" />
            </Array>
          </mxGeometry>
        </mxCell>
        <mxCell id="Dlah-OBdRQUG3CnUTtF7-48" value="1" style="edgeLabel;resizable=0;html=1;align=left;verticalAlign=top;strokeColor=default;" connectable="0" vertex="1" parent="Dlah-OBdRQUG3CnUTtF7-46">
          <mxGeometry x="1894" y="1643" as="geometry" />
        </mxCell>
        <mxCell id="Dlah-OBdRQUG3CnUTtF7-50" value="" style="html=1;rounded=1;edgeStyle=orthogonalEdgeStyle;dashed=0;startArrow=diamondThinstartSize=12;endArrow=openThin;endSize=12;strokeColor=#595959;entryX=0.500;entryY=0.000;entryDx=0;entryDy=0;" edge="1" parent="1" source="Dlah-OBdRQUG3CnUTtF7-7" target="Dlah-OBdRQUG3CnUTtF7-17">
          <mxGeometry width="50" height="50" relative="1" as="geometry">
            <Array as="points">
              <mxPoint x="200" y="1092" />
              <mxPoint x="506" y="1092" />
            </Array>
          </mxGeometry>
        </mxCell>
        <mxCell id="Dlah-OBdRQUG3CnUTtF7-51" value="1" style="edgeLabel;resizable=0;html=1;align=left;verticalAlign=top;strokeColor=default;" connectable="0" vertex="1" parent="Dlah-OBdRQUG3CnUTtF7-50">
          <mxGeometry x="600" y="1100" as="geometry" />
        </mxCell>
        <mxCell id="Dlah-OBdRQUG3CnUTtF7-52" value="*" style="edgeLabel;resizable=0;html=1;align=left;verticalAlign=top;strokeColor=default;" connectable="0" vertex="1" parent="Dlah-OBdRQUG3CnUTtF7-50">
          <mxGeometry x="490" y="1100" as="geometry" />
        </mxCell>
        <mxCell id="Dlah-OBdRQUG3CnUTtF7-53" value="thanhToans" style="edgeLabel;resizable=0;html=1;align=left;verticalAlign=top;strokeColor=default;" connectable="0" vertex="1" parent="Dlah-OBdRQUG3CnUTtF7-50">
          <mxGeometry x="510" y="1100" as="geometry" />
        </mxCell>
        <mxCell id="Dlah-OBdRQUG3CnUTtF7-54" value="" style="html=1;rounded=1;edgeStyle=orthogonalEdgeStyle;dashed=0;startArrow=diamondThinstartSize=12;endArrow=openThin;endSize=12;strokeColor=#595959;exitX=1.000;exitY=0.100;exitDx=0;exitDy=0;entryX=0.500;entryY=1.000;entryDx=0;entryDy=0;" edge="1" parent="1" source="Dlah-OBdRQUG3CnUTtF7-8" target="Dlah-OBdRQUG3CnUTtF7-9">
          <mxGeometry width="50" height="50" relative="1" as="geometry">
            <Array as="points">
              <mxPoint x="1088" y="2258" />
            </Array>
          </mxGeometry>
        </mxCell>
        <mxCell id="Dlah-OBdRQUG3CnUTtF7-55" value="1" style="edgeLabel;resizable=0;html=1;align=left;verticalAlign=top;strokeColor=default;" connectable="0" vertex="1" parent="Dlah-OBdRQUG3CnUTtF7-54">
          <mxGeometry x="1077" y="2119" as="geometry">
            <mxPoint x="107" y="18" as="offset" />
          </mxGeometry>
        </mxCell>
        <mxCell id="Dlah-OBdRQUG3CnUTtF7-56" value="*" style="edgeLabel;resizable=0;html=1;align=left;verticalAlign=top;strokeColor=default;" connectable="0" vertex="1" parent="Dlah-OBdRQUG3CnUTtF7-54">
          <mxGeometry x="1079" y="1620" as="geometry" />
        </mxCell>
        <mxCell id="Dlah-OBdRQUG3CnUTtF7-57" value="hoaDonChiTiets" style="edgeLabel;resizable=0;html=1;align=left;verticalAlign=top;strokeColor=default;" connectable="0" vertex="1" parent="Dlah-OBdRQUG3CnUTtF7-54">
          <mxGeometry x="1088" y="1620" as="geometry" />
        </mxCell>
        <mxCell id="Dlah-OBdRQUG3CnUTtF7-58" value="" style="html=1;rounded=1;edgeStyle=orthogonalEdgeStyle;dashed=0;startArrow=diamondThinstartSize=12;endArrow=openThin;endSize=12;strokeColor=#595959;" edge="1" parent="1" source="Dlah-OBdRQUG3CnUTtF7-8" target="Dlah-OBdRQUG3CnUTtF7-10">
          <mxGeometry width="50" height="50" relative="1" as="geometry">
            <Array as="points">
              <mxPoint x="2136" y="2490" />
              <mxPoint x="2136" y="600" />
            </Array>
            <mxPoint x="2040" y="600" as="targetPoint" />
          </mxGeometry>
        </mxCell>
        <mxCell id="Dlah-OBdRQUG3CnUTtF7-60" value="1" style="edgeLabel;resizable=0;html=1;align=left;verticalAlign=top;strokeColor=default;" connectable="0" vertex="1" parent="Dlah-OBdRQUG3CnUTtF7-58">
          <mxGeometry x="2140" y="2650" as="geometry" />
        </mxCell>
        <mxCell id="Dlah-OBdRQUG3CnUTtF7-61" value="khachHang" style="edgeLabel;resizable=0;html=1;align=left;verticalAlign=top;strokeColor=default;" connectable="0" vertex="1" parent="Dlah-OBdRQUG3CnUTtF7-58">
          <mxGeometry x="1880" y="260" as="geometry" />
        </mxCell>
        <mxCell id="Dlah-OBdRQUG3CnUTtF7-62" value="" style="html=1;rounded=1;edgeStyle=orthogonalEdgeStyle;dashed=0;startArrow=diamondThinstartSize=12;endArrow=openThin;endSize=12;strokeColor=#595959;exitX=-0.002;exitY=0.164;exitDx=0;exitDy=0;exitPerimeter=0;entryX=0.75;entryY=0;entryDx=0;entryDy=0;" edge="1" parent="1" source="Dlah-OBdRQUG3CnUTtF7-8" target="Dlah-OBdRQUG3CnUTtF7-11">
          <mxGeometry width="50" height="50" relative="1" as="geometry">
            <Array as="points">
              <mxPoint x="414" y="1857" />
            </Array>
            <mxPoint x="225" y="1920" as="targetPoint" />
          </mxGeometry>
        </mxCell>
        <mxCell id="Dlah-OBdRQUG3CnUTtF7-63" value="1" style="edgeLabel;resizable=0;html=1;align=left;verticalAlign=top;strokeColor=default;" connectable="0" vertex="1" parent="Dlah-OBdRQUG3CnUTtF7-62">
          <mxGeometry x="560" y="1860" as="geometry" />
        </mxCell>
        <mxCell id="Dlah-OBdRQUG3CnUTtF7-64" value="*" style="edgeLabel;resizable=0;html=1;align=left;verticalAlign=top;strokeColor=default;" connectable="0" vertex="1" parent="Dlah-OBdRQUG3CnUTtF7-62">
          <mxGeometry x="390" y="2010" as="geometry" />
        </mxCell>
        <mxCell id="Dlah-OBdRQUG3CnUTtF7-65" value="lichSuHoaDons" style="edgeLabel;resizable=0;html=1;align=left;verticalAlign=top;strokeColor=default;" connectable="0" vertex="1" parent="Dlah-OBdRQUG3CnUTtF7-62">
          <mxGeometry x="425" y="2010" as="geometry" />
        </mxCell>
        <mxCell id="Dlah-OBdRQUG3CnUTtF7-66" value="" style="html=1;rounded=1;edgeStyle=orthogonalEdgeStyle;dashed=0;startArrow=diamondThinstartSize=12;endArrow=openThin;endSize=12;strokeColor=#595959;entryX=0.000;entryY=0.824;entryDx=0;entryDy=0;" edge="1" parent="1" source="Dlah-OBdRQUG3CnUTtF7-8" target="Dlah-OBdRQUG3CnUTtF7-12">
          <mxGeometry width="50" height="50" relative="1" as="geometry">
            <Array as="points" />
            <mxPoint x="880" y="1960" as="sourcePoint" />
          </mxGeometry>
        </mxCell>
        <mxCell id="Dlah-OBdRQUG3CnUTtF7-67" value="1" style="edgeLabel;resizable=0;html=1;align=left;verticalAlign=top;strokeColor=default;" connectable="0" vertex="1" parent="Dlah-OBdRQUG3CnUTtF7-66">
          <mxGeometry x="900" y="2160" as="geometry" />
        </mxCell>
        <mxCell id="Dlah-OBdRQUG3CnUTtF7-68" value="1" style="edgeLabel;resizable=0;html=1;align=left;verticalAlign=top;strokeColor=default;" connectable="0" vertex="1" parent="Dlah-OBdRQUG3CnUTtF7-66">
          <mxGeometry x="687" y="2145" as="geometry" />
        </mxCell>
        <mxCell id="Dlah-OBdRQUG3CnUTtF7-69" value="nhanVien" style="edgeLabel;resizable=0;html=1;align=left;verticalAlign=top;strokeColor=default;" connectable="0" vertex="1" parent="Dlah-OBdRQUG3CnUTtF7-66">
          <mxGeometry x="1150" y="2170" as="geometry" />
        </mxCell>
        <mxCell id="Dlah-OBdRQUG3CnUTtF7-70" value="" style="html=1;rounded=1;edgeStyle=orthogonalEdgeStyle;dashed=0;startArrow=diamondThinstartSize=12;endArrow=openThin;endSize=12;strokeColor=#595959;" edge="1" parent="1" source="Dlah-OBdRQUG3CnUTtF7-8">
          <mxGeometry width="50" height="50" relative="1" as="geometry">
            <Array as="points">
              <mxPoint x="1380" y="2411" />
              <mxPoint x="1380" y="2310" />
              <mxPoint x="1711" y="2310" />
              <mxPoint x="1711" y="2040" />
            </Array>
            <mxPoint x="2166" y="2040" as="targetPoint" />
          </mxGeometry>
        </mxCell>
        <mxCell id="Dlah-OBdRQUG3CnUTtF7-71" value="1" style="edgeLabel;resizable=0;html=1;align=left;verticalAlign=top;strokeColor=default;" connectable="0" vertex="1" parent="Dlah-OBdRQUG3CnUTtF7-70">
          <mxGeometry x="1369" y="2310" as="geometry" />
        </mxCell>
        <mxCell id="Dlah-OBdRQUG3CnUTtF7-72" value="1" style="edgeLabel;resizable=0;html=1;align=left;verticalAlign=top;strokeColor=default;" connectable="0" vertex="1" parent="Dlah-OBdRQUG3CnUTtF7-70">
          <mxGeometry x="1369" y="2389" as="geometry" />
        </mxCell>
        <mxCell id="Dlah-OBdRQUG3CnUTtF7-73" value="phieuGiamGia" style="edgeLabel;resizable=0;html=1;align=left;verticalAlign=top;strokeColor=default;" connectable="0" vertex="1" parent="Dlah-OBdRQUG3CnUTtF7-70">
          <mxGeometry x="1380" y="2310" as="geometry" />
        </mxCell>
        <mxCell id="Dlah-OBdRQUG3CnUTtF7-74" value="" style="html=1;rounded=1;edgeStyle=orthogonalEdgeStyle;dashed=0;startArrow=diamondThinstartSize=12;endArrow=openThin;endSize=12;strokeColor=#595959;entryX=0.500;entryY=0.000;entryDx=0;entryDy=0;" edge="1" parent="1" source="Dlah-OBdRQUG3CnUTtF7-8" target="Dlah-OBdRQUG3CnUTtF7-17">
          <mxGeometry width="50" height="50" relative="1" as="geometry">
            <Array as="points">
              <mxPoint x="200" y="1743" />
              <mxPoint x="200" y="1092" />
              <mxPoint x="506" y="1092" />
            </Array>
          </mxGeometry>
        </mxCell>
        <mxCell id="Dlah-OBdRQUG3CnUTtF7-77" value="thanhToans" style="edgeLabel;resizable=0;html=1;align=left;verticalAlign=top;strokeColor=default;" connectable="0" vertex="1" parent="Dlah-OBdRQUG3CnUTtF7-74">
          <mxGeometry x="510" y="1100" as="geometry" />
        </mxCell>
        <mxCell id="Dlah-OBdRQUG3CnUTtF7-78" value="" style="html=1;rounded=1;edgeStyle=orthogonalEdgeStyle;dashed=0;startArrow=diamondThinstartSize=12;endArrow=openThin;endSize=12;strokeColor=#595959;exitX=0;exitY=0.25;exitDx=0;exitDy=0;entryX=0.500;entryY=0.000;entryDx=0;entryDy=0;" edge="1" parent="1" source="Dlah-OBdRQUG3CnUTtF7-9" target="Dlah-OBdRQUG3CnUTtF7-8">
          <mxGeometry width="50" height="50" relative="1" as="geometry">
            <Array as="points">
              <mxPoint x="797" y="1261" />
            </Array>
          </mxGeometry>
        </mxCell>
        <mxCell id="Dlah-OBdRQUG3CnUTtF7-80" value="1" style="edgeLabel;resizable=0;html=1;align=left;verticalAlign=top;strokeColor=default;" connectable="0" vertex="1" parent="Dlah-OBdRQUG3CnUTtF7-78">
          <mxGeometry x="1088" y="1120" as="geometry">
            <mxPoint x="-253" y="160" as="offset" />
          </mxGeometry>
        </mxCell>
        <mxCell id="Dlah-OBdRQUG3CnUTtF7-82" value="" style="html=1;rounded=1;edgeStyle=orthogonalEdgeStyle;dashed=0;startArrow=diamondThinstartSize=12;endArrow=openThin;endSize=12;strokeColor=#595959;exitX=1.000;exitY=0.500;exitDx=0;exitDy=0;" edge="1" parent="1" source="Dlah-OBdRQUG3CnUTtF7-9" target="Dlah-OBdRQUG3CnUTtF7-16">
          <mxGeometry width="50" height="50" relative="1" as="geometry">
            <Array as="points">
              <mxPoint x="1309" y="1372" />
              <mxPoint x="1339" y="1372" />
              <mxPoint x="1339" y="820" />
            </Array>
          </mxGeometry>
        </mxCell>
        <mxCell id="Dlah-OBdRQUG3CnUTtF7-83" value="1" style="edgeLabel;resizable=0;html=1;align=left;verticalAlign=top;strokeColor=default;" connectable="0" vertex="1" parent="Dlah-OBdRQUG3CnUTtF7-82">
          <mxGeometry x="610" y="410" as="geometry" />
        </mxCell>
        <mxCell id="Dlah-OBdRQUG3CnUTtF7-84" value="1" style="edgeLabel;resizable=0;html=1;align=left;verticalAlign=top;strokeColor=default;" connectable="0" vertex="1" parent="Dlah-OBdRQUG3CnUTtF7-82">
          <mxGeometry x="1343" y="1002" as="geometry" />
        </mxCell>
        <mxCell id="Dlah-OBdRQUG3CnUTtF7-85" value="sanPhamChiTiet" style="edgeLabel;resizable=0;html=1;align=left;verticalAlign=top;strokeColor=default;" connectable="0" vertex="1" parent="Dlah-OBdRQUG3CnUTtF7-82">
          <mxGeometry x="1100" y="790" as="geometry" />
        </mxCell>
        <mxCell id="Dlah-OBdRQUG3CnUTtF7-86" value="" style="html=1;rounded=1;edgeStyle=orthogonalEdgeStyle;dashed=0;startArrow=diamondThinstartSize=12;endArrow=openThin;endSize=12;strokeColor=#595959;exitX=0.599;exitY=0.000;exitDx=0;exitDy=0;entryX=0.5;entryY=0;entryDx=0;entryDy=0;" edge="1" parent="1" source="Dlah-OBdRQUG3CnUTtF7-10" target="Dlah-OBdRQUG3CnUTtF7-3">
          <mxGeometry width="50" height="50" relative="1" as="geometry">
            <Array as="points">
              <mxPoint x="1870" y="230" />
              <mxPoint x="2407" y="230" />
            </Array>
          </mxGeometry>
        </mxCell>
        <mxCell id="Dlah-OBdRQUG3CnUTtF7-87" value="1" style="edgeLabel;resizable=0;html=1;align=left;verticalAlign=top;strokeColor=default;" connectable="0" vertex="1" parent="Dlah-OBdRQUG3CnUTtF7-86">
          <mxGeometry x="2390" y="240" as="geometry" />
        </mxCell>
        <mxCell id="Dlah-OBdRQUG3CnUTtF7-88" value="*" style="edgeLabel;resizable=0;html=1;align=left;verticalAlign=top;strokeColor=default;" connectable="0" vertex="1" parent="Dlah-OBdRQUG3CnUTtF7-86">
          <mxGeometry x="1859" y="260" as="geometry" />
        </mxCell>
        <mxCell id="Dlah-OBdRQUG3CnUTtF7-89" value="diaChis" style="edgeLabel;resizable=0;html=1;align=left;verticalAlign=top;strokeColor=default;" connectable="0" vertex="1" parent="Dlah-OBdRQUG3CnUTtF7-86">
          <mxGeometry x="2421" y="240" as="geometry" />
        </mxCell>
        <mxCell id="Dlah-OBdRQUG3CnUTtF7-90" value="" style="html=1;rounded=1;edgeStyle=orthogonalEdgeStyle;dashed=0;startArrow=diamondThinstartSize=12;endArrow=openThin;endSize=12;strokeColor=#595959;entryX=0.500;entryY=0.000;entryDx=0;entryDy=0;" edge="1" parent="1" source="Dlah-OBdRQUG3CnUTtF7-11" target="Dlah-OBdRQUG3CnUTtF7-8">
          <mxGeometry width="50" height="50" relative="1" as="geometry">
            <Array as="points">
              <mxPoint x="255" y="1650" />
              <mxPoint x="797" y="1650" />
            </Array>
          </mxGeometry>
        </mxCell>
        <mxCell id="Dlah-OBdRQUG3CnUTtF7-91" value="1" style="edgeLabel;resizable=0;html=1;align=left;verticalAlign=top;strokeColor=default;" connectable="0" vertex="1" parent="Dlah-OBdRQUG3CnUTtF7-90">
          <mxGeometry x="790" y="1900" as="geometry">
            <mxPoint x="-11" y="-243" as="offset" />
          </mxGeometry>
        </mxCell>
        <mxCell id="Dlah-OBdRQUG3CnUTtF7-92" value="1" style="edgeLabel;resizable=0;html=1;align=left;verticalAlign=top;strokeColor=default;" connectable="0" vertex="1" parent="Dlah-OBdRQUG3CnUTtF7-90">
          <mxGeometry x="260" y="2010" as="geometry" />
        </mxCell>
        <mxCell id="Dlah-OBdRQUG3CnUTtF7-93" value="hoaDon" style="edgeLabel;resizable=0;html=1;align=left;verticalAlign=top;strokeColor=default;" connectable="0" vertex="1" parent="Dlah-OBdRQUG3CnUTtF7-90">
          <mxGeometry x="210" y="2010" as="geometry" />
        </mxCell>
        <mxCell id="Dlah-OBdRQUG3CnUTtF7-94" value="" style="html=1;rounded=1;edgeStyle=orthogonalEdgeStyle;dashed=0;startArrow=diamondThinstartSize=12;endArrow=openThin;endSize=12;strokeColor=#595959;exitX=-0.001;exitY=0.64;exitDx=0;exitDy=0;exitPerimeter=0;" edge="1" parent="1" source="Dlah-OBdRQUG3CnUTtF7-14" target="Dlah-OBdRQUG3CnUTtF7-10">
          <mxGeometry width="50" height="50" relative="1" as="geometry">
            <Array as="points">
              <mxPoint x="2166" y="2277" />
              <mxPoint x="2136" y="2277" />
              <mxPoint x="2136" y="600" />
            </Array>
            <mxPoint x="2090" y="620" as="targetPoint" />
          </mxGeometry>
        </mxCell>
        <mxCell id="Dlah-OBdRQUG3CnUTtF7-96" value="1" style="edgeLabel;resizable=0;html=1;align=left;verticalAlign=top;strokeColor=default;" connectable="0" vertex="1" parent="Dlah-OBdRQUG3CnUTtF7-94">
          <mxGeometry x="2332" y="2273" as="geometry" />
        </mxCell>
        <mxCell id="Dlah-OBdRQUG3CnUTtF7-97" value="khachHang" style="edgeLabel;resizable=0;html=1;align=left;verticalAlign=top;strokeColor=default;" connectable="0" vertex="1" parent="Dlah-OBdRQUG3CnUTtF7-94">
          <mxGeometry x="2050" y="570.0000000000001" as="geometry" />
        </mxCell>
        <mxCell id="Dlah-OBdRQUG3CnUTtF7-98" value="" style="html=1;rounded=1;edgeStyle=orthogonalEdgeStyle;dashed=0;startArrow=diamondThinstartSize=12;endArrow=openThin;endSize=12;strokeColor=#595959;exitX=-0.001;exitY=0.635;exitDx=0;exitDy=0;exitPerimeter=0;" edge="1" parent="1" source="Dlah-OBdRQUG3CnUTtF7-14">
          <mxGeometry width="50" height="50" relative="1" as="geometry">
            <Array as="points">
              <mxPoint x="1711" y="2310" />
              <mxPoint x="1711" y="2040" />
            </Array>
            <mxPoint x="2166" y="2040" as="targetPoint" />
          </mxGeometry>
        </mxCell>
        <mxCell id="Dlah-OBdRQUG3CnUTtF7-99" value="1" style="edgeLabel;resizable=0;html=1;align=left;verticalAlign=top;strokeColor=default;" connectable="0" vertex="1" parent="Dlah-OBdRQUG3CnUTtF7-98">
          <mxGeometry x="2100" y="2020" as="geometry" />
        </mxCell>
        <mxCell id="Dlah-OBdRQUG3CnUTtF7-100" value="1" style="edgeLabel;resizable=0;html=1;align=left;verticalAlign=top;strokeColor=default;" connectable="0" vertex="1" parent="Dlah-OBdRQUG3CnUTtF7-98">
          <mxGeometry x="1384" y="2295" as="geometry" />
        </mxCell>
        <mxCell id="Dlah-OBdRQUG3CnUTtF7-101" value="phieuGiamGia" style="edgeLabel;resizable=0;html=1;align=left;verticalAlign=top;strokeColor=default;" connectable="0" vertex="1" parent="Dlah-OBdRQUG3CnUTtF7-98">
          <mxGeometry x="2060" y="2040" as="geometry" />
        </mxCell>
        <mxCell id="Dlah-OBdRQUG3CnUTtF7-102" value="" style="html=1;rounded=1;edgeStyle=orthogonalEdgeStyle;dashed=0;startArrow=diamondThinstartSize=12;endArrow=openThin;endSize=12;strokeColor=#595959;exitX=0.462;exitY=1.002;exitDx=0;exitDy=0;exitPerimeter=0;" edge="1" parent="1" source="Dlah-OBdRQUG3CnUTtF7-15" target="Dlah-OBdRQUG3CnUTtF7-16">
          <mxGeometry width="50" height="50" relative="1" as="geometry">
            <Array as="points">
              <mxPoint x="1340" y="820" />
            </Array>
            <mxPoint x="1330" y="620" as="sourcePoint" />
          </mxGeometry>
        </mxCell>
        <mxCell id="Dlah-OBdRQUG3CnUTtF7-104" value="*" style="edgeLabel;resizable=0;html=1;align=left;verticalAlign=top;strokeColor=default;" connectable="0" vertex="1" parent="Dlah-OBdRQUG3CnUTtF7-102">
          <mxGeometry x="1140" y="820" as="geometry" />
        </mxCell>
        <mxCell id="Dlah-OBdRQUG3CnUTtF7-105" value="sanPhamChiTiets" style="edgeLabel;resizable=0;html=1;align=left;verticalAlign=top;strokeColor=default;" connectable="0" vertex="1" parent="Dlah-OBdRQUG3CnUTtF7-102">
          <mxGeometry x="560" y="450" as="geometry" />
        </mxCell>
        <mxCell id="Dlah-OBdRQUG3CnUTtF7-106" value="" style="html=1;rounded=1;edgeStyle=orthogonalEdgeStyle;dashed=0;startArrow=diamondThinstartSize=12;endArrow=openThin;endSize=12;strokeColor=#595959;exitX=1.007;exitY=0.567;exitDx=0;exitDy=0;entryX=0.25;entryY=1;entryDx=0;entryDy=0;exitPerimeter=0;" edge="1" parent="1" source="Dlah-OBdRQUG3CnUTtF7-16" target="Dlah-OBdRQUG3CnUTtF7-15">
          <mxGeometry width="50" height="50" relative="1" as="geometry">
            <Array as="points" />
            <mxPoint x="1315.9720000000002" y="679" as="sourcePoint" />
          </mxGeometry>
        </mxCell>
        <mxCell id="Dlah-OBdRQUG3CnUTtF7-107" value="1" style="edgeLabel;resizable=0;html=1;align=left;verticalAlign=top;strokeColor=default;" connectable="0" vertex="1" parent="Dlah-OBdRQUG3CnUTtF7-106">
          <mxGeometry x="698" y="181" as="geometry">
            <mxPoint x="410" y="509" as="offset" />
          </mxGeometry>
        </mxCell>
        <mxCell id="Dlah-OBdRQUG3CnUTtF7-108" value="1" style="edgeLabel;resizable=0;html=1;align=left;verticalAlign=top;strokeColor=default;" connectable="0" vertex="1" parent="Dlah-OBdRQUG3CnUTtF7-106">
          <mxGeometry x="704" y="203" as="geometry">
            <mxPoint x="561" y="433" as="offset" />
          </mxGeometry>
        </mxCell>
        <mxCell id="Dlah-OBdRQUG3CnUTtF7-109" value="sanPham" style="edgeLabel;resizable=0;html=1;align=left;verticalAlign=top;strokeColor=default;" connectable="0" vertex="1" parent="Dlah-OBdRQUG3CnUTtF7-106">
          <mxGeometry x="1100" y="710" as="geometry" />
        </mxCell>
        <mxCell id="Dlah-OBdRQUG3CnUTtF7-110" value="" style="html=1;rounded=1;edgeStyle=orthogonalEdgeStyle;dashed=0;startArrow=diamondThinstartSize=12;endArrow=openThin;endSize=12;strokeColor=#595959;entryX=1.000;entryY=0.500;entryDx=0;entryDy=0;" edge="1" parent="1" source="Dlah-OBdRQUG3CnUTtF7-17" target="Dlah-OBdRQUG3CnUTtF7-7">
          <mxGeometry width="50" height="50" relative="1" as="geometry">
            <Array as="points">
              <mxPoint x="590" y="823" />
            </Array>
          </mxGeometry>
        </mxCell>
        <mxCell id="Dlah-OBdRQUG3CnUTtF7-111" value="1" style="edgeLabel;resizable=0;html=1;align=left;verticalAlign=top;strokeColor=default;" connectable="0" vertex="1" parent="Dlah-OBdRQUG3CnUTtF7-110">
          <mxGeometry x="530" y="830" as="geometry" />
        </mxCell>
        <mxCell id="Dlah-OBdRQUG3CnUTtF7-113" value="hinhThucThanhToan" style="edgeLabel;resizable=0;html=1;align=left;verticalAlign=top;strokeColor=default;" connectable="0" vertex="1" parent="Dlah-OBdRQUG3CnUTtF7-110">
          <mxGeometry x="520" y="790" as="geometry" />
        </mxCell>
        <mxCell id="Dlah-OBdRQUG3CnUTtF7-114" value="" style="html=1;rounded=1;edgeStyle=orthogonalEdgeStyle;dashed=0;startArrow=diamondThinstartSize=12;endArrow=openThin;endSize=12;strokeColor=#595959;exitX=0.000;exitY=0.500;exitDx=0;exitDy=0;entryX=0.500;entryY=0.000;entryDx=0;entryDy=0;" edge="1" parent="1" source="Dlah-OBdRQUG3CnUTtF7-17" target="Dlah-OBdRQUG3CnUTtF7-8">
          <mxGeometry width="50" height="50" relative="1" as="geometry">
            <Array as="points">
              <mxPoint x="255" y="1369" />
              <mxPoint x="255" y="1650" />
              <mxPoint x="797" y="1650" />
            </Array>
          </mxGeometry>
        </mxCell>
        <mxCell id="Dlah-OBdRQUG3CnUTtF7-116" value="1" style="edgeLabel;resizable=0;html=1;align=left;verticalAlign=top;strokeColor=default;" connectable="0" vertex="1" parent="Dlah-OBdRQUG3CnUTtF7-114">
          <mxGeometry x="535" y="1740" as="geometry" />
        </mxCell>
        <mxCell id="Dlah-OBdRQUG3CnUTtF7-117" value="hoaDon" style="edgeLabel;resizable=0;html=1;align=left;verticalAlign=top;strokeColor=default;" connectable="0" vertex="1" parent="Dlah-OBdRQUG3CnUTtF7-114">
          <mxGeometry x="810" y="1660" as="geometry" />
        </mxCell>
      </root>
    </mxGraphModel>
  </diagram>
</mxfile>
